<svg width="90" height="18" viewBox="0 0 90 18" fill="none" xmlns="http://www.w3.org/2000/svg">
<path d="M11.8581 7.08108H13.1763C14.4945 7.08108 15.1536 6.42199 15.1536 5.1038V3.78562C15.1536 2.46744 14.4945 1.80835 13.1763 1.80835H11.8581C10.54 1.80835 9.88086 2.46744 9.88086 3.78562V5.1038C9.88086 6.42199 10.54 7.08108 11.8581 7.08108Z" stroke="white" stroke-width="1.18636" stroke-miterlimit="10" stroke-linecap="round" stroke-linejoin="round"/>
<path d="M3.94895 14.9902H5.26713C6.58532 14.9902 7.24441 14.3311 7.24441 13.0129V11.6947C7.24441 10.3765 6.58532 9.71744 5.26713 9.71744H3.94895C2.63077 9.71744 1.97168 10.3765 1.97168 11.6947V13.0129C1.97168 14.3311 2.63077 14.9902 3.94895 14.9902Z" stroke="white" stroke-width="1.18636" stroke-miterlimit="10" stroke-linecap="round" stroke-linejoin="round"/>
<path d="M4.60804 7.08108C6.06407 7.08108 7.24441 5.90074 7.24441 4.44471C7.24441 2.98869 6.06407 1.80835 4.60804 1.80835C3.15202 1.80835 1.97168 2.98869 1.97168 4.44471C1.97168 5.90074 3.15202 7.08108 4.60804 7.08108Z" stroke="white" stroke-width="1.18636" stroke-miterlimit="10" stroke-linecap="round" stroke-linejoin="round"/>
<path d="M12.5172 14.9902C13.9732 14.9902 15.1536 13.8098 15.1536 12.3538C15.1536 10.8978 13.9732 9.71744 12.5172 9.71744C11.0612 9.71744 9.88086 10.8978 9.88086 12.3538C9.88086 13.8098 11.0612 14.9902 12.5172 14.9902Z" stroke="white" stroke-width="1.18636" stroke-miterlimit="10" stroke-linecap="round" stroke-linejoin="round"/>
<path d="M29.3064 4.79457C30.1257 4.79457 30.8418 4.95328 31.4545 5.27069C32.0745 5.58073 32.5507 6.03102 32.8829 6.62157C33.2224 7.20473 33.3922 7.88755 33.3922 8.67002C33.3922 9.45249 33.2224 10.1316 32.8829 10.7074C32.5507 11.2832 32.0745 11.7261 31.4545 12.0361C30.8418 12.3388 30.1257 12.4901 29.3064 12.4901H26.7929V4.79457H29.3064ZM29.3064 11.4603C30.2069 11.4603 30.8971 11.2167 31.377 10.7295C31.8568 10.2423 32.0967 9.55584 32.0967 8.67002C32.0967 7.77682 31.8568 7.07924 31.377 6.57728C30.8971 6.07531 30.2069 5.82433 29.3064 5.82433H28.0551V11.4603H29.3064ZM34.3807 9.41189C34.3807 8.7992 34.5062 8.25664 34.7571 7.7842C35.0155 7.31177 35.3624 6.94637 35.798 6.688C36.2409 6.42226 36.7281 6.28939 37.2596 6.28939C37.7394 6.28939 38.1565 6.38535 38.5108 6.57728C38.8725 6.76182 39.1604 6.99435 39.3745 7.27486V6.38904H40.6478V12.4901H39.3745V11.5821C39.1604 11.87 38.8688 12.1099 38.4997 12.3019C38.1306 12.4938 37.7099 12.5898 37.2374 12.5898C36.7133 12.5898 36.2335 12.4569 35.798 12.1911C35.3624 11.918 35.0155 11.5415 34.7571 11.0617C34.5062 10.5745 34.3807 10.0246 34.3807 9.41189ZM39.3745 9.43404C39.3745 9.01328 39.2859 8.64788 39.1087 8.33784C38.9389 8.0278 38.7138 7.79158 38.4333 7.62918C38.1528 7.46678 37.8501 7.38558 37.5253 7.38558C37.2005 7.38558 36.8979 7.46678 36.6174 7.62918C36.3368 7.7842 36.108 8.01673 35.9308 8.32677C35.7611 8.62942 35.6762 8.99113 35.6762 9.41189C35.6762 9.83266 35.7611 10.2017 35.9308 10.5192C36.108 10.8366 36.3368 11.0802 36.6174 11.25C36.9052 11.4124 37.2079 11.4936 37.5253 11.4936C37.8501 11.4936 38.1528 11.4124 38.4333 11.25C38.7138 11.0876 38.9389 10.8513 39.1087 10.5413C39.2859 10.2239 39.3745 9.8548 39.3745 9.43404ZM44.6785 12.5898C44.1987 12.5898 43.7669 12.5049 43.383 12.3351C43.0065 12.1579 42.7076 11.9217 42.4861 11.6264C42.2647 11.3238 42.1466 10.9879 42.1318 10.6188H43.4384C43.4605 10.8772 43.5823 11.0949 43.8038 11.2721C44.0326 11.4419 44.3168 11.5268 44.6564 11.5268C45.0107 11.5268 45.2838 11.4603 45.4758 11.3275C45.6751 11.1872 45.7747 11.0101 45.7747 10.796C45.7747 10.5671 45.664 10.3974 45.4425 10.2866C45.2285 10.1759 44.8852 10.0541 44.4128 9.92124C43.9551 9.79575 43.5823 9.67395 43.2944 9.55584C43.0065 9.43773 42.7556 9.25688 42.5415 9.01328C42.3348 8.76968 42.2315 8.44857 42.2315 8.04995C42.2315 7.72515 42.3274 7.42988 42.5193 7.16413C42.7113 6.891 42.9844 6.67693 43.3387 6.52191C43.7004 6.36689 44.1138 6.28939 44.5789 6.28939C45.2728 6.28939 45.8301 6.46655 46.2509 6.82088C46.679 7.16782 46.9078 7.64395 46.9374 8.24926H45.6751C45.6529 7.97613 45.5422 7.75837 45.3429 7.59597C45.1436 7.43357 44.8741 7.35237 44.5346 7.35237C44.2024 7.35237 43.9477 7.41511 43.7706 7.5406C43.5934 7.66609 43.5048 7.83218 43.5048 8.03888C43.5048 8.20128 43.5639 8.33784 43.682 8.44857C43.8001 8.55929 43.944 8.64788 44.1138 8.71431C44.2836 8.77337 44.5346 8.85088 44.8668 8.94684C45.3097 9.06495 45.6714 9.18675 45.9519 9.31224C46.2398 9.43035 46.4871 9.60751 46.6938 9.84373C46.9005 10.0799 47.0075 10.3937 47.0149 10.7849C47.0149 11.1319 46.9189 11.4419 46.727 11.715C46.5351 11.9881 46.2619 12.2022 45.9076 12.3572C45.5607 12.5123 45.151 12.5898 44.6785 12.5898ZM51.6927 6.28939C52.1578 6.28939 52.5711 6.38904 52.9329 6.58835C53.3019 6.78766 53.5898 7.08293 53.7965 7.47417C54.0106 7.8654 54.1176 8.33784 54.1176 8.89148V12.4901H52.8664V9.07971C52.8664 8.53346 52.7299 8.11638 52.4567 7.82849C52.1836 7.53322 51.8108 7.38558 51.3384 7.38558C50.8659 7.38558 50.4895 7.53322 50.209 7.82849C49.9358 8.11638 49.7993 8.53346 49.7993 9.07971V12.4901H48.537V4.29629H49.7993V7.09769C50.0133 6.83933 50.2828 6.64002 50.6076 6.49977C50.9398 6.35951 51.3015 6.28939 51.6927 6.28939ZM57.1482 7.297C57.3623 7.00173 57.6539 6.76182 58.023 6.57728C58.3995 6.38535 58.8165 6.28939 59.2742 6.28939C59.8131 6.28939 60.3003 6.41857 60.7358 6.67693C61.1713 6.93529 61.5146 7.30438 61.7656 7.7842C62.0166 8.25664 62.142 8.7992 62.142 9.41189C62.142 10.0246 62.0166 10.5745 61.7656 11.0617C61.5146 11.5415 61.1676 11.918 60.7247 12.1911C60.2892 12.4569 59.8057 12.5898 59.2742 12.5898C58.8018 12.5898 58.381 12.4975 58.0119 12.3129C57.6502 12.1284 57.3623 11.8922 57.1482 11.6043V12.4901H55.886V4.29629H57.1482V7.297ZM60.8576 9.41189C60.8576 8.99113 60.769 8.62942 60.5919 8.32677C60.4221 8.01673 60.1932 7.7842 59.9054 7.62918C59.6248 7.46678 59.3222 7.38558 58.9974 7.38558C58.68 7.38558 58.3773 7.46678 58.0894 7.62918C57.8089 7.79158 57.5801 8.0278 57.4029 8.33784C57.2331 8.64788 57.1482 9.01328 57.1482 9.43404C57.1482 9.8548 57.2331 10.2239 57.4029 10.5413C57.5801 10.8513 57.8089 11.0876 58.0894 11.25C58.3773 11.4124 58.68 11.4936 58.9974 11.4936C59.3222 11.4936 59.6248 11.4124 59.9054 11.25C60.1932 11.0802 60.4221 10.8366 60.5919 10.5192C60.769 10.2017 60.8576 9.83266 60.8576 9.41189ZM66.1949 12.5898C65.6191 12.5898 65.0987 12.4606 64.6336 12.2022C64.1686 11.9365 63.8032 11.5674 63.5374 11.0949C63.2717 10.6151 63.1388 10.0615 63.1388 9.43404C63.1388 8.81397 63.2754 8.26402 63.5485 7.7842C63.8216 7.30438 64.1944 6.93529 64.6668 6.67693C65.1393 6.41857 65.6671 6.28939 66.2502 6.28939C66.8334 6.28939 67.3612 6.41857 67.8336 6.67693C68.3061 6.93529 68.6789 7.30438 68.952 7.7842C69.2251 8.26402 69.3617 8.81397 69.3617 9.43404C69.3617 10.0541 69.2214 10.6041 68.9409 11.0839C68.6604 11.5637 68.2766 11.9365 67.7894 12.2022C67.3095 12.4606 66.778 12.5898 66.1949 12.5898ZM66.1949 11.4936C66.5197 11.4936 66.8223 11.4161 67.1028 11.261C67.3907 11.106 67.6233 10.8735 67.8004 10.5635C67.9776 10.2534 68.0662 9.87695 68.0662 9.43404C68.0662 8.99113 67.9813 8.61835 67.8115 8.31569C67.6417 8.00566 67.4166 7.77313 67.1361 7.61811C66.8556 7.46309 66.5529 7.38558 66.2281 7.38558C65.9033 7.38558 65.6006 7.46309 65.3201 7.61811C65.047 7.77313 64.8292 8.00566 64.6668 8.31569C64.5044 8.61835 64.4232 8.99113 64.4232 9.43404C64.4232 10.091 64.5893 10.6004 64.9215 10.9621C65.2611 11.3164 65.6855 11.4936 66.1949 11.4936ZM70.3469 9.41189C70.3469 8.7992 70.4724 8.25664 70.7234 7.7842C70.9818 7.31177 71.3287 6.94637 71.7643 6.688C72.2072 6.42226 72.6944 6.28939 73.2259 6.28939C73.7057 6.28939 74.1227 6.38535 74.4771 6.57728C74.8388 6.76182 75.1267 6.99435 75.3407 7.27486V6.38904H76.6141V12.4901H75.3407V11.5821C75.1267 11.87 74.8351 12.1099 74.466 12.3019C74.0969 12.4938 73.6761 12.5898 73.2037 12.5898C72.6796 12.5898 72.1998 12.4569 71.7643 12.1911C71.3287 11.918 70.9818 11.5415 70.7234 11.0617C70.4724 10.5745 70.3469 10.0246 70.3469 9.41189ZM75.3407 9.43404C75.3407 9.01328 75.2522 8.64788 75.075 8.33784C74.9052 8.0278 74.6801 7.79158 74.3996 7.62918C74.1191 7.46678 73.8164 7.38558 73.4916 7.38558C73.1668 7.38558 72.8641 7.46678 72.5836 7.62918C72.3031 7.7842 72.0743 8.01673 71.8971 8.32677C71.7273 8.62942 71.6425 8.99113 71.6425 9.41189C71.6425 9.83266 71.7273 10.2017 71.8971 10.5192C72.0743 10.8366 72.3031 11.0802 72.5836 11.25C72.8715 11.4124 73.1742 11.4936 73.4916 11.4936C73.8164 11.4936 74.1191 11.4124 74.3996 11.25C74.6801 11.0876 74.9052 10.8513 75.075 10.5413C75.2522 10.2239 75.3407 9.8548 75.3407 9.43404ZM79.6925 7.27486C79.8771 6.96482 80.1207 6.72491 80.4233 6.55513C80.7334 6.37797 81.0988 6.28939 81.5195 6.28939V7.59597H81.1984C80.7039 7.59597 80.3274 7.72146 80.069 7.97244C79.818 8.22342 79.6925 8.65895 79.6925 9.27902V12.4901H78.4303V6.38904H79.6925V7.27486ZM82.4173 9.41189C82.4173 8.7992 82.5428 8.25664 82.7937 7.7842C83.0521 7.31177 83.3991 6.94637 83.8346 6.688C84.2775 6.42226 84.7684 6.28939 85.3073 6.28939C85.7059 6.28939 86.0971 6.37797 86.481 6.55513C86.8722 6.72491 87.1822 6.95375 87.4111 7.24164V4.29629H88.6844V12.4901H87.4111V11.5711C87.2044 11.8663 86.9165 12.1099 86.5474 12.3019C86.1857 12.4938 85.7686 12.5898 85.2962 12.5898C84.7647 12.5898 84.2775 12.4569 83.8346 12.1911C83.3991 11.918 83.0521 11.5415 82.7937 11.0617C82.5428 10.5745 82.4173 10.0246 82.4173 9.41189ZM87.4111 9.43404C87.4111 9.01328 87.3225 8.64788 87.1453 8.33784C86.9755 8.0278 86.7504 7.79158 86.4699 7.62918C86.1894 7.46678 85.8867 7.38558 85.5619 7.38558C85.2371 7.38558 84.9345 7.46678 84.654 7.62918C84.3735 7.7842 84.1446 8.01673 83.9675 8.32677C83.7977 8.62942 83.7128 8.99113 83.7128 9.41189C83.7128 9.83266 83.7977 10.2017 83.9675 10.5192C84.1446 10.8366 84.3735 11.0802 84.654 11.25C84.9419 11.4124 85.2445 11.4936 85.5619 11.4936C85.8867 11.4936 86.1894 11.4124 86.4699 11.25C86.7504 11.0876 86.9755 10.8513 87.1453 10.5413C87.3225 10.2239 87.4111 9.8548 87.4111 9.43404Z" fill="white"/>
</svg>
