<svg width="24" height="24" viewBox="0 0 24 24" fill="none" xmlns="http://www.w3.org/2000/svg">
<path d="M8.40565 9.19878C8.04222 8.89535 7.50221 8.94506 7.19878 9.3085C6.89535 9.67193 6.94506 10.2128 7.3085 10.5154L11.5943 14.8011C11.6346 14.8354 11.6826 14.8517 11.7271 14.8774C11.7623 14.898 11.7931 14.922 11.8317 14.9374C11.932 14.9769 12.0366 15 12.1428 15C12.2491 15 12.3537 14.9769 12.454 14.9374C12.4926 14.922 12.5234 14.898 12.5586 14.8774C12.6031 14.8517 12.6511 14.8354 12.6914 14.8011L16.9772 10.5154C17.3415 10.2128 17.3903 9.67193 17.0869 9.3085C16.7843 8.94506 16.2443 8.89535 15.88 9.19878L13 12.3128L12.1429 13.1699L11.2838 12.3107L8.40565 9.19878Z" fill="#9295A6"/>
</svg>
