<svg width="72" height="18" viewBox="0 0 72 18" fill="none" xmlns="http://www.w3.org/2000/svg">
<path d="M4.0428 9.88118C3.56462 9.09568 3.28955 8.17532 3.28955 7.19134C3.28955 4.30883 5.65023 1.97209 8.56228 1.97209C11.4743 1.97209 13.835 4.30883 13.835 7.19134C13.835 8.17532 13.56 9.09568 13.0817 9.88118" stroke="white" stroke-width="1.18636" stroke-linecap="round"/>
<path d="M5.5197 11.923C5.45915 11.7407 5.42888 11.6496 5.43241 11.5758C5.43987 11.4196 5.53833 11.2824 5.68362 11.2259C5.75231 11.1992 5.84805 11.1992 6.03953 11.1992H11.0861C11.2776 11.1992 11.3733 11.1992 11.442 11.2259C11.5873 11.2824 11.6858 11.4196 11.6932 11.5758C11.6967 11.6496 11.6665 11.7407 11.6059 11.923C11.494 12.26 11.438 12.4285 11.3518 12.5649C11.171 12.8507 10.8876 13.0557 10.5603 13.1375C10.404 13.1765 10.227 13.1765 9.87315 13.1765H7.25247C6.89857 13.1765 6.72164 13.1765 6.5654 13.1375C6.23808 13.0557 5.95466 12.8507 5.77387 12.5649C5.68756 12.4285 5.63161 12.26 5.5197 11.923Z" stroke="white" stroke-width="1.18636"/>
<path d="M10.5395 13.1765L10.4543 13.6027C10.3611 14.0687 10.3145 14.3017 10.21 14.4858C10.0486 14.7705 9.78696 14.985 9.47613 15.0875C9.27511 15.1538 9.0375 15.1538 8.56223 15.1538C8.08696 15.1538 7.84936 15.1538 7.64834 15.0875C7.33751 14.985 7.07588 14.7705 6.91442 14.4858C6.81 14.3017 6.7634 14.0687 6.67019 13.6027L6.58496 13.1765" stroke="white" stroke-width="1.18636"/>
<path d="M8.92608 4.93799L7.9232 6.05487C7.78539 6.20834 7.86923 6.45349 8.07223 6.49039L9.05341 6.66879C9.26953 6.70809 9.34559 6.97892 9.18161 7.12502L7.93744 8.23344" stroke="white" stroke-width="1.18636" stroke-linecap="round" stroke-linejoin="round"/>
<path d="M31.3216 4.95829V5.98806H28.0551V8.25797H30.6019V9.28773H28.0551V12.6538H26.7929V4.95829H31.3216ZM32.2288 9.57562C32.2288 8.96293 32.3543 8.42037 32.6053 7.94793C32.8637 7.47549 33.2106 7.11009 33.6461 6.85173C34.0891 6.58598 34.5763 6.45311 35.1077 6.45311C35.5876 6.45311 36.0046 6.54908 36.359 6.741C36.7207 6.92555 37.0086 7.15808 37.2226 7.43858V6.55277H38.496V12.6538H37.2226V11.7459C37.0086 12.0338 36.717 12.2737 36.3479 12.4656C35.9788 12.6575 35.558 12.7535 35.0856 12.7535C34.5615 12.7535 34.0817 12.6206 33.6461 12.3549C33.2106 12.0817 32.8637 11.7053 32.6053 11.2255C32.3543 10.7383 32.2288 10.1883 32.2288 9.57562ZM37.2226 9.59777C37.2226 9.177 37.1341 8.8116 36.9569 8.50157C36.7871 8.19153 36.562 7.95531 36.2815 7.79291C36.0009 7.63051 35.6983 7.54931 35.3735 7.54931C35.0487 7.54931 34.746 7.63051 34.4655 7.79291C34.185 7.94793 33.9562 8.18046 33.779 8.49049C33.6092 8.79315 33.5243 9.15486 33.5243 9.57562C33.5243 9.99638 33.6092 10.3655 33.779 10.6829C33.9562 11.0003 34.185 11.2439 34.4655 11.4137C34.7534 11.5761 35.0561 11.6573 35.3735 11.6573C35.6983 11.6573 36.0009 11.5761 36.2815 11.4137C36.562 11.2513 36.7871 11.0151 36.9569 10.705C37.1341 10.3876 37.2226 10.0185 37.2226 9.59777ZM43.3904 6.45311C43.8702 6.45311 44.2983 6.55277 44.6748 6.75207C45.0587 6.95138 45.3576 7.24666 45.5717 7.63789C45.7858 8.02913 45.8928 8.50157 45.8928 9.0552V12.6538H44.6416V9.24344C44.6416 8.69718 44.505 8.28011 44.2319 7.99222C43.9588 7.69695 43.586 7.54931 43.1135 7.54931C42.6411 7.54931 42.2646 7.69695 41.9841 7.99222C41.711 8.28011 41.5744 8.69718 41.5744 9.24344V12.6538H40.3121V6.55277H41.5744V7.25035C41.7811 6.99937 42.0432 6.80375 42.3606 6.66349C42.6854 6.52324 43.0287 6.45311 43.3904 6.45311ZM49.1338 7.58253V10.9597C49.1338 11.1885 49.1855 11.3546 49.2888 11.458C49.3995 11.5539 49.5841 11.6019 49.8424 11.6019H50.6175V12.6538H49.621C49.0526 12.6538 48.6171 12.521 48.3144 12.2552C48.0118 11.9895 47.8604 11.5576 47.8604 10.9597V7.58253H47.1407V6.55277H47.8604V5.0358H49.1338V6.55277H50.6175V7.58253H49.1338ZM51.5184 9.57562C51.5184 8.96293 51.6439 8.42037 51.8948 7.94793C52.1532 7.47549 52.5001 7.11009 52.9357 6.85173C53.3786 6.58598 53.8658 6.45311 54.3973 6.45311C54.8771 6.45311 55.2942 6.54908 55.6485 6.741C56.0102 6.92555 56.2981 7.15808 56.5122 7.43858V6.55277H57.7855V12.6538H56.5122V11.7459C56.2981 12.0338 56.0065 12.2737 55.6374 12.4656C55.2683 12.6575 54.8476 12.7535 54.3751 12.7535C53.851 12.7535 53.3712 12.6206 52.9357 12.3549C52.5001 12.0817 52.1532 11.7053 51.8948 11.2255C51.6439 10.7383 51.5184 10.1883 51.5184 9.57562ZM56.5122 9.59777C56.5122 9.177 56.4236 8.8116 56.2464 8.50157C56.0766 8.19153 55.8515 7.95531 55.571 7.79291C55.2905 7.63051 54.9878 7.54931 54.663 7.54931C54.3382 7.54931 54.0356 7.63051 53.7551 7.79291C53.4745 7.94793 53.2457 8.18046 53.0685 8.49049C52.8988 8.79315 52.8139 9.15486 52.8139 9.57562C52.8139 9.99638 52.8988 10.3655 53.0685 10.6829C53.2457 11.0003 53.4745 11.2439 53.7551 11.4137C54.0429 11.5761 54.3456 11.6573 54.663 11.6573C54.9878 11.6573 55.2905 11.5761 55.571 11.4137C55.8515 11.2513 56.0766 11.0151 56.2464 10.705C56.4236 10.3876 56.5122 10.0185 56.5122 9.59777ZM61.8162 12.7535C61.3364 12.7535 60.9046 12.6686 60.5207 12.4988C60.1442 12.3217 59.8453 12.0854 59.6238 11.7902C59.4024 11.4875 59.2843 11.1516 59.2695 10.7825H60.5761C60.5982 11.0409 60.72 11.2587 60.9415 11.4358C61.1703 11.6056 61.4545 11.6905 61.7941 11.6905C62.1484 11.6905 62.4215 11.6241 62.6135 11.4912C62.8128 11.3509 62.9124 11.1738 62.9124 10.9597C62.9124 10.7309 62.8017 10.5611 62.5802 10.4504C62.3662 10.3396 62.0229 10.2178 61.5505 10.085C61.0928 9.95948 60.72 9.83768 60.4321 9.71957C60.1442 9.60146 59.8933 9.4206 59.6792 9.177C59.4725 8.9334 59.3692 8.61229 59.3692 8.21368C59.3692 7.88888 59.4651 7.5936 59.657 7.32786C59.849 7.05473 60.1221 6.84066 60.4764 6.68564C60.8381 6.53062 61.2515 6.45311 61.7166 6.45311C62.4105 6.45311 62.9678 6.63028 63.3886 6.9846C63.8167 7.33155 64.0455 7.80768 64.0751 8.41298H62.8128C62.7906 8.13986 62.6799 7.92209 62.4806 7.75969C62.2813 7.59729 62.0118 7.51609 61.6723 7.51609C61.3401 7.51609 61.0854 7.57884 60.9083 7.70433C60.7311 7.82982 60.6425 7.99591 60.6425 8.2026C60.6425 8.365 60.7016 8.50157 60.8197 8.61229C60.9378 8.72302 61.0817 8.8116 61.2515 8.87804C61.4213 8.93709 61.6723 9.0146 62.0045 9.11057C62.4474 9.22868 62.8091 9.35048 63.0896 9.47597C63.3775 9.59408 63.6248 9.77124 63.8315 10.0075C64.0382 10.2437 64.1452 10.5574 64.1526 10.9486C64.1526 11.2956 64.0566 11.6056 63.8647 11.8787C63.6728 12.1519 63.3996 12.3659 63.0453 12.521C62.6984 12.676 62.2887 12.7535 61.8162 12.7535ZM71.1668 6.55277L67.4242 15.5217H66.1176L67.3577 12.5542L64.955 6.55277H66.3612L68.0775 11.2033L69.8602 6.55277H71.1668Z" fill="white"/>
</svg>
