<svg width="101" height="18" viewBox="0 0 101 18" fill="none" xmlns="http://www.w3.org/2000/svg">
<g clip-path="url(#clip0_125_62060)">
<path d="M10.3324 15.0814H5.66569M10.3324 15.0814V6.91001C10.3324 6.78498 10.2832 6.66507 10.1957 6.57666C10.1082 6.48825 9.98946 6.43858 9.86569 6.43858H6.13236C6.00859 6.43858 5.88989 6.48825 5.80237 6.57666C5.71486 6.66507 5.66569 6.78498 5.66569 6.91001V15.0814M10.3324 15.0814H14.5324C14.6561 15.0814 14.7748 15.0318 14.8623 14.9434C14.9499 14.8549 14.999 14.735 14.999 14.61V12.0172C14.999 11.8921 14.9499 11.7722 14.8623 11.6838C14.7748 11.5954 14.6561 11.5457 14.5324 11.5457H10.799C10.6753 11.5457 10.5566 11.5954 10.469 11.6838C10.3815 11.7722 10.3324 11.8921 10.3324 12.0172V15.0814ZM5.66569 15.0814V10.4457C5.66569 10.3207 5.61652 10.2008 5.52901 10.1124C5.44149 10.024 5.32279 9.97429 5.19902 9.97429H1.46569C1.34192 9.97429 1.22322 10.024 1.13571 10.1124C1.04819 10.2008 0.999023 10.3207 0.999023 10.4457V14.61C0.999023 14.735 1.04819 14.8549 1.13571 14.9434C1.22322 15.0318 1.34192 15.0814 1.46569 15.0814H5.66569ZM10.3324 4.08144H5.66569" stroke="white" stroke-linecap="round" stroke-linejoin="round"/>
</g>
<path d="M28.2368 11.7986H30.8389V12.8173H26.9745V5.12173H28.2368V11.7986ZM37.6444 9.61726C37.6444 9.84609 37.6297 10.0528 37.6001 10.2373H32.9385C32.9754 10.7245 33.1563 11.1158 33.4811 11.411C33.8059 11.7063 34.2045 11.8539 34.6769 11.8539C35.3561 11.8539 35.8359 11.5697 36.1164 11.0013H37.4783C37.2938 11.5624 36.9579 12.0237 36.4707 12.3854C35.9909 12.7398 35.393 12.9169 34.6769 12.9169C34.0938 12.9169 33.5697 12.7877 33.1046 12.5294C32.6469 12.2636 32.2852 11.8945 32.0195 11.4221C31.7611 10.9423 31.6319 10.3887 31.6319 9.7612C31.6319 9.13375 31.7574 8.5838 32.0084 8.11137C32.2668 7.63155 32.6248 7.26246 33.0825 7.00409C33.5475 6.74573 34.079 6.61655 34.6769 6.61655C35.2527 6.61655 35.7657 6.74204 36.216 6.99302C36.6663 7.244 37.017 7.59833 37.2679 8.056C37.5189 8.50629 37.6444 9.02671 37.6444 9.61726ZM36.3268 9.21864C36.3194 8.75358 36.1533 8.3808 35.8285 8.10029C35.5037 7.81978 35.1014 7.67953 34.6216 7.67953C34.186 7.67953 33.8133 7.81978 33.5032 8.10029C33.1932 8.37342 33.0086 8.7462 32.9496 9.21864H36.3268ZM38.6241 9.73906C38.6241 9.12637 38.7495 8.5838 39.0005 8.11137C39.2589 7.63893 39.6058 7.27353 40.0414 7.01517C40.4843 6.74942 40.9715 6.61655 41.503 6.61655C41.9828 6.61655 42.3999 6.71251 42.7542 6.90444C43.1159 7.08898 43.4038 7.32151 43.6179 7.60202V6.7162H44.8912V12.8173H43.6179V11.9093C43.4038 12.1972 43.1122 12.4371 42.7431 12.629C42.374 12.821 41.9533 12.9169 41.4808 12.9169C40.9567 12.9169 40.4769 12.7841 40.0414 12.5183C39.6058 12.2452 39.2589 11.8687 39.0005 11.3889C38.7495 10.9017 38.6241 10.3517 38.6241 9.73906ZM43.6179 9.7612C43.6179 9.34044 43.5293 8.97504 43.3521 8.665C43.1823 8.35497 42.9572 8.11875 42.6767 7.95635C42.3962 7.79395 42.0935 7.71275 41.7687 7.71275C41.4439 7.71275 41.1413 7.79395 40.8607 7.95635C40.5802 8.11137 40.3514 8.34389 40.1742 8.65393C40.0045 8.95658 39.9196 9.31829 39.9196 9.73906C39.9196 10.1598 40.0045 10.5289 40.1742 10.8463C40.3514 11.1637 40.5802 11.4073 40.8607 11.5771C41.1486 11.7395 41.4513 11.8207 41.7687 11.8207C42.0935 11.8207 42.3962 11.7395 42.6767 11.5771C42.9572 11.4147 43.1823 11.1785 43.3521 10.8685C43.5293 10.5511 43.6179 10.182 43.6179 9.7612ZM46.2866 9.73906C46.2866 9.12637 46.4121 8.5838 46.6631 8.11137C46.9214 7.63893 47.2684 7.27353 47.7039 7.01517C48.1468 6.74942 48.6377 6.61655 49.1766 6.61655C49.5752 6.61655 49.9664 6.70513 50.3503 6.88229C50.7415 7.05208 51.0516 7.28091 51.2804 7.5688V4.62346H52.5538V12.8173H51.2804V11.8982C51.0737 12.1935 50.7858 12.4371 50.4167 12.629C50.055 12.821 49.638 12.9169 49.1655 12.9169C48.634 12.9169 48.1468 12.7841 47.7039 12.5183C47.2684 12.2452 46.9214 11.8687 46.6631 11.3889C46.4121 10.9017 46.2866 10.3517 46.2866 9.73906ZM51.2804 9.7612C51.2804 9.34044 51.1918 8.97504 51.0147 8.665C50.8449 8.35497 50.6197 8.11875 50.3392 7.95635C50.0587 7.79395 49.7561 7.71275 49.4313 7.71275C49.1065 7.71275 48.8038 7.79395 48.5233 7.95635C48.2428 8.11137 48.014 8.34389 47.8368 8.65393C47.667 8.95658 47.5821 9.31829 47.5821 9.73906C47.5821 10.1598 47.667 10.5289 47.8368 10.8463C48.014 11.1637 48.2428 11.4073 48.5233 11.5771C48.8112 11.7395 49.1138 11.8207 49.4313 11.8207C49.7561 11.8207 50.0587 11.7395 50.3392 11.5771C50.6197 11.4147 50.8449 11.1785 51.0147 10.8685C51.1918 10.5511 51.2804 10.182 51.2804 9.7612ZM59.9616 9.61726C59.9616 9.84609 59.9469 10.0528 59.9174 10.2373H55.2557C55.2926 10.7245 55.4735 11.1158 55.7983 11.411C56.1231 11.7063 56.5217 11.8539 56.9942 11.8539C57.6733 11.8539 58.1531 11.5697 58.4336 11.0013H59.7956C59.611 11.5624 59.2751 12.0237 58.7879 12.3854C58.3081 12.7398 57.7102 12.9169 56.9942 12.9169C56.411 12.9169 55.8869 12.7877 55.4218 12.5294C54.9642 12.2636 54.6024 11.8945 54.3367 11.4221C54.0783 10.9423 53.9492 10.3887 53.9492 9.7612C53.9492 9.13375 54.0746 8.5838 54.3256 8.11137C54.584 7.63155 54.942 7.26246 55.3997 7.00409C55.8647 6.74573 56.3962 6.61655 56.9942 6.61655C57.5699 6.61655 58.083 6.74204 58.5333 6.99302C58.9836 7.244 59.3342 7.59833 59.5852 8.056C59.8362 8.50629 59.9616 9.02671 59.9616 9.61726ZM58.644 9.21864C58.6366 8.75358 58.4705 8.3808 58.1457 8.10029C57.8209 7.81978 57.4186 7.67953 56.9388 7.67953C56.5033 7.67953 56.1305 7.81978 55.8204 8.10029C55.5104 8.37342 55.3259 8.7462 55.2668 9.21864H58.644ZM62.6243 7.60202C62.8089 7.29198 63.0525 7.05208 63.3551 6.88229C63.6652 6.70513 64.0306 6.61655 64.4513 6.61655V7.92313H64.1302C63.6357 7.92313 63.2592 8.04862 63.0008 8.2996C62.7498 8.55058 62.6243 8.98611 62.6243 9.60618V12.8173H61.3621V6.7162H62.6243V7.60202ZM67.0321 7.62417C67.2462 7.32889 67.5378 7.08898 67.9069 6.90444C68.2833 6.71251 68.7004 6.61655 69.1581 6.61655C69.697 6.61655 70.1842 6.74573 70.6197 7.00409C71.0552 7.26246 71.3985 7.63155 71.6494 8.11137C71.9004 8.5838 72.0259 9.12637 72.0259 9.73906C72.0259 10.3517 71.9004 10.9017 71.6494 11.3889C71.3985 11.8687 71.0515 12.2452 70.6086 12.5183C70.1731 12.7841 69.6896 12.9169 69.1581 12.9169C68.6856 12.9169 68.2649 12.8247 67.8958 12.6401C67.5341 12.4556 67.2462 12.2193 67.0321 11.9315V12.8173H65.7698V4.62346H67.0321V7.62417ZM70.7415 9.73906C70.7415 9.31829 70.6529 8.95658 70.4757 8.65393C70.306 8.34389 70.0771 8.11137 69.7892 7.95635C69.5087 7.79395 69.2061 7.71275 68.8813 7.71275C68.5638 7.71275 68.2612 7.79395 67.9733 7.95635C67.6928 8.11875 67.464 8.35497 67.2868 8.665C67.117 8.97504 67.0321 9.34044 67.0321 9.7612C67.0321 10.182 67.117 10.5511 67.2868 10.8685C67.464 11.1785 67.6928 11.4147 67.9733 11.5771C68.2612 11.7395 68.5638 11.8207 68.8813 11.8207C69.2061 11.8207 69.5087 11.7395 69.7892 11.5771C70.0771 11.4073 70.306 11.1637 70.4757 10.8463C70.6529 10.5289 70.7415 10.1598 70.7415 9.73906ZM76.0788 12.9169C75.503 12.9169 74.9826 12.7877 74.5175 12.5294C74.0524 12.2636 73.687 11.8945 73.4213 11.4221C73.1556 10.9423 73.0227 10.3887 73.0227 9.7612C73.0227 9.14113 73.1592 8.59118 73.4324 8.11137C73.7055 7.63155 74.0783 7.26246 74.5507 7.00409C75.0232 6.74573 75.551 6.61655 76.1341 6.61655C76.7173 6.61655 77.2451 6.74573 77.7175 7.00409C78.19 7.26246 78.5627 7.63155 78.8359 8.11137C79.109 8.59118 79.2456 9.14113 79.2456 9.7612C79.2456 10.3813 79.1053 10.9312 78.8248 11.411C78.5443 11.8909 78.1604 12.2636 77.6732 12.5294C77.1934 12.7877 76.6619 12.9169 76.0788 12.9169ZM76.0788 11.8207C76.4036 11.8207 76.7062 11.7432 76.9867 11.5882C77.2746 11.4332 77.5071 11.2007 77.6843 10.8906C77.8615 10.5806 77.95 10.2041 77.95 9.7612C77.95 9.31829 77.8652 8.94551 77.6954 8.64286C77.5256 8.33282 77.3004 8.10029 77.0199 7.94528C76.7394 7.79026 76.4368 7.71275 76.112 7.71275C75.7872 7.71275 75.4845 7.79026 75.204 7.94528C74.9309 8.10029 74.7131 8.33282 74.5507 8.64286C74.3883 8.94551 74.3071 9.31829 74.3071 9.7612C74.3071 10.4182 74.4732 10.9275 74.8054 11.2892C75.145 11.6436 75.5694 11.8207 76.0788 11.8207ZM80.2308 9.73906C80.2308 9.12637 80.3563 8.5838 80.6073 8.11137C80.8657 7.63893 81.2126 7.27353 81.6481 7.01517C82.091 6.74942 82.5782 6.61655 83.1097 6.61655C83.5895 6.61655 84.0066 6.71251 84.3609 6.90444C84.7227 7.08898 85.0105 7.32151 85.2246 7.60202V6.7162H86.498V12.8173H85.2246V11.9093C85.0105 12.1972 84.719 12.4371 84.3499 12.629C83.9808 12.821 83.56 12.9169 83.0876 12.9169C82.5635 12.9169 82.0837 12.7841 81.6481 12.5183C81.2126 12.2452 80.8657 11.8687 80.6073 11.3889C80.3563 10.9017 80.2308 10.3517 80.2308 9.73906ZM85.2246 9.7612C85.2246 9.34044 85.136 8.97504 84.9589 8.665C84.7891 8.35497 84.5639 8.11875 84.2834 7.95635C84.0029 7.79395 83.7003 7.71275 83.3755 7.71275C83.0507 7.71275 82.748 7.79395 82.4675 7.95635C82.187 8.11137 81.9582 8.34389 81.781 8.65393C81.6112 8.95658 81.5263 9.31829 81.5263 9.73906C81.5263 10.1598 81.6112 10.5289 81.781 10.8463C81.9582 11.1637 82.187 11.4073 82.4675 11.5771C82.7554 11.7395 83.0581 11.8207 83.3755 11.8207C83.7003 11.8207 84.0029 11.7395 84.2834 11.5771C84.5639 11.4147 84.7891 11.1785 84.9589 10.8685C85.136 10.5511 85.2246 10.182 85.2246 9.7612ZM89.5764 7.60202C89.761 7.29198 90.0046 7.05208 90.3072 6.88229C90.6173 6.70513 90.9827 6.61655 91.4034 6.61655V7.92313H91.0823C90.5877 7.92313 90.2113 8.04862 89.9529 8.2996C89.7019 8.55058 89.5764 8.98611 89.5764 9.60618V12.8173H88.3141V6.7162H89.5764V7.60202ZM92.3011 9.73906C92.3011 9.12637 92.4266 8.5838 92.6776 8.11137C92.936 7.63893 93.2829 7.27353 93.7184 7.01517C94.1614 6.74942 94.6522 6.61655 95.1911 6.61655C95.5897 6.61655 95.981 6.70513 96.3648 6.88229C96.7561 7.05208 97.0661 7.28091 97.2949 7.5688V4.62346H98.5683V12.8173H97.2949V11.8982C97.0882 12.1935 96.8004 12.4371 96.4313 12.629C96.0696 12.821 95.6525 12.9169 95.18 12.9169C94.6486 12.9169 94.1614 12.7841 93.7184 12.5183C93.2829 12.2452 92.936 11.8687 92.6776 11.3889C92.4266 10.9017 92.3011 10.3517 92.3011 9.73906ZM97.2949 9.7612C97.2949 9.34044 97.2064 8.97504 97.0292 8.665C96.8594 8.35497 96.6343 8.11875 96.3538 7.95635C96.0732 7.79395 95.7706 7.71275 95.4458 7.71275C95.121 7.71275 94.8183 7.79395 94.5378 7.95635C94.2573 8.11137 94.0285 8.34389 93.8513 8.65393C93.6815 8.95658 93.5966 9.31829 93.5966 9.73906C93.5966 10.1598 93.6815 10.5289 93.8513 10.8463C94.0285 11.1637 94.2573 11.4073 94.5378 11.5771C94.8257 11.7395 95.1284 11.8207 95.4458 11.8207C95.7706 11.8207 96.0732 11.7395 96.3538 11.5771C96.6343 11.4147 96.8594 11.1785 97.0292 10.8685C97.2064 10.5511 97.2949 10.182 97.2949 9.7612Z" fill="white"/>
<defs>
<clipPath id="clip0_125_62060">
<rect width="16" height="16" fill="white" transform="translate(0.65332 1.31728)"/>
</clipPath>
</defs>
</svg>
