<svg width="117" height="18" viewBox="0 0 117 18" fill="none" xmlns="http://www.w3.org/2000/svg">
<g clip-path="url(#clip0_125_62089)">
<path d="M14.6535 6.78355C13.7835 4.26555 11.3535 2.49021 8.49148 2.49021C4.89882 2.49021 1.98682 5.34421 1.98682 8.86488C1.98682 10.8255 2.89015 12.5795 4.31148 13.7489C5.21082 14.4889 6.14748 14.4802 7.27615 14.4802C8.06082 14.4802 9.13748 14.6209 9.61348 13.8435C10.4501 12.4782 8.83348 10.5769 9.89082 9.17355C10.2028 8.75955 10.7201 8.52955 11.7548 8.07021L14.6535 6.78355ZM14.6535 6.78355L15.3201 6.48688M7.32548 11.8235H7.31882" stroke="white" stroke-width="1.5" stroke-linecap="round" stroke-linejoin="round"/>
<path d="M15.32 11.0975L12.4093 11.4689C11.1973 11.6235 10.04 10.9329 9.65332 9.82355" stroke="white" stroke-width="1.5" stroke-linecap="round" stroke-linejoin="round"/>
<path d="M11.3203 8.49021L11.7236 12.1182C11.849 13.2462 11.9116 13.8102 12.291 14.1502C12.671 14.4902 13.2383 14.4902 14.3736 14.4902H15.3203M14.3203 11.1569V14.4902" stroke="white" stroke-width="1.5" stroke-linecap="round" stroke-linejoin="round"/>
</g>
<path d="M30.9718 12.4902L29.2001 9.41199H28.2368V12.4902H26.9745V4.79467H29.632C30.2225 4.79467 30.7208 4.89801 31.1268 5.1047C31.5402 5.31139 31.8465 5.58821 32.0458 5.93516C32.2525 6.2821 32.3558 6.66965 32.3558 7.09779C32.3558 7.59976 32.2082 8.05743 31.9129 8.47081C31.625 8.87681 31.1784 9.15363 30.5731 9.30127L32.4776 12.4902H30.9718ZM28.2368 8.40438H29.632C30.1044 8.40438 30.4587 8.28627 30.6949 8.05005C30.9385 7.81383 31.0603 7.49641 31.0603 7.09779C31.0603 6.69918 30.9422 6.38914 30.706 6.16768C30.4698 5.93885 30.1118 5.82443 29.632 5.82443H28.2368V8.40438ZM39.7206 9.29019C39.7206 9.51903 39.7058 9.72572 39.6763 9.91027H35.0146C35.0516 10.3975 35.2324 10.7887 35.5572 11.084C35.882 11.3792 36.2806 11.5269 36.7531 11.5269C37.4322 11.5269 37.912 11.2427 38.1925 10.6743H39.5545C39.3699 11.2353 39.034 11.6967 38.5468 12.0584C38.067 12.4127 37.4691 12.5899 36.7531 12.5899C36.1699 12.5899 35.6458 12.4607 35.1807 12.2023C34.7231 11.9366 34.3614 11.5675 34.0956 11.095C33.8372 10.6152 33.7081 10.0616 33.7081 9.43414C33.7081 8.80668 33.8336 8.25674 34.0845 7.7843C34.3429 7.30448 34.7009 6.93539 35.1586 6.67703C35.6236 6.41867 36.1551 6.28948 36.7531 6.28948C37.3288 6.28948 37.8419 6.41498 38.2922 6.66596C38.7425 6.91694 39.0931 7.27127 39.3441 7.72894C39.5951 8.17923 39.7206 8.69965 39.7206 9.29019ZM38.4029 8.89158C38.3955 8.42652 38.2294 8.05374 37.9046 7.77323C37.5798 7.49272 37.1775 7.35247 36.6977 7.35247C36.2622 7.35247 35.8894 7.49272 35.5794 7.77323C35.2693 8.04636 35.0848 8.41914 35.0257 8.89158H38.4029ZM42.5936 7.4189V10.7961C42.5936 11.0249 42.6453 11.191 42.7486 11.2944C42.8594 11.3903 43.0439 11.4383 43.3023 11.4383H44.0774V12.4902H43.0808C42.5124 12.4902 42.0769 12.3573 41.7742 12.0916C41.4716 11.8258 41.3203 11.394 41.3203 10.7961V7.4189H40.6005V6.38914H41.3203V4.87218H42.5936V6.38914H44.0774V7.4189H42.5936ZM50.9243 6.38914V12.4902H49.662V11.7705C49.4627 12.0215 49.2006 12.2208 48.8758 12.3684C48.5584 12.5087 48.2188 12.5788 47.8571 12.5788C47.3773 12.5788 46.9455 12.4791 46.5616 12.2798C46.1851 12.0805 45.8862 11.7852 45.6647 11.394C45.4506 11.0028 45.3436 10.5303 45.3436 9.9767V6.38914H46.5948V9.78847C46.5948 10.3347 46.7314 10.7555 47.0045 11.0508C47.2776 11.3386 47.6504 11.4826 48.1229 11.4826C48.5953 11.4826 48.9681 11.3386 49.2412 11.0508C49.5217 10.7555 49.662 10.3347 49.662 9.78847V6.38914H50.9243ZM54.0102 7.27496C54.1948 6.96492 54.4384 6.72501 54.741 6.55523C55.0511 6.37807 55.4165 6.28948 55.8372 6.28948V7.59607H55.5161C55.0215 7.59607 54.6451 7.72156 54.3867 7.97254C54.1357 8.22352 54.0102 8.65905 54.0102 9.27912V12.4902H52.7479V6.38914H54.0102V7.27496ZM60.2339 6.28948C60.7137 6.28948 61.1419 6.38914 61.5184 6.58845C61.9022 6.78776 62.2012 7.08303 62.4153 7.47427C62.6293 7.8655 62.7364 8.33794 62.7364 8.89158V12.4902H61.4851V9.07981C61.4851 8.53356 61.3486 8.11648 61.0755 7.82859C60.8023 7.53332 60.4295 7.38568 59.9571 7.38568C59.4847 7.38568 59.1082 7.53332 58.8277 7.82859C58.5546 8.11648 58.418 8.53356 58.418 9.07981V12.4902H57.1557V6.38914H58.418V7.08672C58.6247 6.83574 58.8867 6.64012 59.2042 6.49987C59.529 6.35961 59.8722 6.28948 60.2339 6.28948ZM69.0118 7.4189V10.7961C69.0118 11.0249 69.0635 11.191 69.1669 11.2944C69.2776 11.3903 69.4621 11.4383 69.7205 11.4383H70.4956V12.4902H69.499C68.9306 12.4902 68.4951 12.3573 68.1925 12.0916C67.8898 11.8258 67.7385 11.394 67.7385 10.7961V7.4189H67.0188V6.38914H67.7385V4.87218H69.0118V6.38914H70.4956V7.4189H69.0118ZM74.4636 12.5899C73.8878 12.5899 73.3674 12.4607 72.9023 12.2023C72.4373 11.9366 72.0719 11.5675 71.8061 11.095C71.5404 10.6152 71.4075 10.0616 71.4075 9.43414C71.4075 8.81407 71.5441 8.26412 71.8172 7.7843C72.0903 7.30448 72.4631 6.93539 72.9355 6.67703C73.408 6.41867 73.9358 6.28948 74.5189 6.28948C75.1021 6.28948 75.6299 6.41867 76.1023 6.67703C76.5748 6.93539 76.9476 7.30448 77.2207 7.7843C77.4938 8.26412 77.6304 8.81407 77.6304 9.43414C77.6304 10.0542 77.4901 10.6042 77.2096 11.084C76.9291 11.5638 76.5452 11.9366 76.058 12.2023C75.5782 12.4607 75.0467 12.5899 74.4636 12.5899ZM74.4636 11.4937C74.7884 11.4937 75.091 11.4162 75.3715 11.2611C75.6594 11.1061 75.892 10.8736 76.0691 10.5636C76.2463 10.2535 76.3349 9.87705 76.3349 9.43414C76.3349 8.99123 76.25 8.61845 76.0802 8.31579C75.9104 8.00576 75.6853 7.77323 75.4048 7.61821C75.1242 7.46319 74.8216 7.38568 74.4968 7.38568C74.172 7.38568 73.8693 7.46319 73.5888 7.61821C73.3157 7.77323 73.0979 8.00576 72.9355 8.31579C72.7731 8.61845 72.6919 8.99123 72.6919 9.43414C72.6919 10.0911 72.858 10.6005 73.1902 10.9622C73.5298 11.3165 73.9542 11.4937 74.4636 11.4937ZM83.3332 11.4715H85.9353V12.4902H82.0709V4.79467H83.3332V11.4715ZM89.7955 12.5899C89.2197 12.5899 88.6993 12.4607 88.2342 12.2023C87.7692 11.9366 87.4038 11.5675 87.138 11.095C86.8723 10.6152 86.7394 10.0616 86.7394 9.43414C86.7394 8.81407 86.876 8.26412 87.1491 7.7843C87.4222 7.30448 87.795 6.93539 88.2674 6.67703C88.7399 6.41867 89.2677 6.28948 89.8508 6.28948C90.434 6.28948 90.9618 6.41867 91.4342 6.67703C91.9067 6.93539 92.2794 7.30448 92.5526 7.7843C92.8257 8.26412 92.9623 8.81407 92.9623 9.43414C92.9623 10.0542 92.822 10.6042 92.5415 11.084C92.261 11.5638 91.8771 11.9366 91.3899 12.2023C90.9101 12.4607 90.3786 12.5899 89.7955 12.5899ZM89.7955 11.4937C90.1203 11.4937 90.4229 11.4162 90.7034 11.2611C90.9913 11.1061 91.2238 10.8736 91.401 10.5636C91.5782 10.2535 91.6668 9.87705 91.6668 9.43414C91.6668 8.99123 91.5819 8.61845 91.4121 8.31579C91.2423 8.00576 91.0172 7.77323 90.7366 7.61821C90.4561 7.46319 90.1535 7.38568 89.8287 7.38568C89.5039 7.38568 89.2012 7.46319 88.9207 7.61821C88.6476 7.77323 88.4298 8.00576 88.2674 8.31579C88.105 8.61845 88.0238 8.99123 88.0238 9.43414C88.0238 10.0911 88.1899 10.6005 88.5221 10.9622C88.8617 11.3165 89.2861 11.4937 89.7955 11.4937ZM95.6306 7.2971C95.8447 7.00183 96.1362 6.76192 96.5053 6.57738C96.8818 6.38545 97.2989 6.28948 97.7566 6.28948C98.2954 6.28948 98.7826 6.41867 99.2182 6.67703C99.6537 6.93539 99.9969 7.30448 100.248 7.7843C100.499 8.25674 100.624 8.7993 100.624 9.41199C100.624 10.0247 100.499 10.5746 100.248 11.0618C99.9969 11.5416 99.65 11.9181 99.2071 12.1912C98.7716 12.457 98.288 12.5899 97.7566 12.5899C97.2841 12.5899 96.8634 12.4976 96.4943 12.313C96.1326 12.1285 95.8447 11.8923 95.6306 11.6044V12.4902H94.3683V4.29639H95.6306V7.2971ZM99.34 9.41199C99.34 8.99123 99.2514 8.62952 99.0742 8.32687C98.9044 8.01683 98.6756 7.7843 98.3877 7.62928C98.1072 7.46688 97.8045 7.38568 97.4797 7.38568C97.1623 7.38568 96.8597 7.46688 96.5718 7.62928C96.2913 7.79168 96.0624 8.0279 95.8853 8.33794C95.7155 8.64798 95.6306 9.01338 95.6306 9.43414C95.6306 9.8549 95.7155 10.224 95.8853 10.5414C96.0624 10.8514 96.2913 11.0877 96.5718 11.2501C96.8597 11.4125 97.1623 11.4937 97.4797 11.4937C97.8045 11.4937 98.1072 11.4125 98.3877 11.2501C98.6756 11.0803 98.9044 10.8367 99.0742 10.5193C99.2514 10.2018 99.34 9.83276 99.34 9.41199ZM103.293 7.2971C103.507 7.00183 103.799 6.76192 104.168 6.57738C104.544 6.38545 104.961 6.28948 105.419 6.28948C105.958 6.28948 106.445 6.41867 106.881 6.67703C107.316 6.93539 107.659 7.30448 107.91 7.7843C108.161 8.25674 108.287 8.7993 108.287 9.41199C108.287 10.0247 108.161 10.5746 107.91 11.0618C107.659 11.5416 107.313 11.9181 106.87 12.1912C106.434 12.457 105.951 12.5899 105.419 12.5899C104.947 12.5899 104.526 12.4976 104.157 12.313C103.795 12.1285 103.507 11.8923 103.293 11.6044V12.4902H102.031V4.29639H103.293V7.2971ZM107.002 9.41199C107.002 8.99123 106.914 8.62952 106.737 8.32687C106.567 8.01683 106.338 7.7843 106.05 7.62928C105.77 7.46688 105.467 7.38568 105.142 7.38568C104.825 7.38568 104.522 7.46688 104.234 7.62928C103.954 7.79168 103.725 8.0279 103.548 8.33794C103.378 8.64798 103.293 9.01338 103.293 9.43414C103.293 9.8549 103.378 10.224 103.548 10.5414C103.725 10.8514 103.954 11.0877 104.234 11.2501C104.522 11.4125 104.825 11.4937 105.142 11.4937C105.467 11.4937 105.77 11.4125 106.05 11.2501C106.338 11.0803 106.567 10.8367 106.737 10.5193C106.914 10.2018 107.002 9.83276 107.002 9.41199ZM115.185 6.38914L111.443 15.358H110.136L111.376 12.3906L108.974 6.38914H110.38L112.096 11.0397L113.879 6.38914H115.185Z" fill="white"/>
<defs>
<clipPath id="clip0_125_62089">
<rect width="16" height="16" fill="white" transform="translate(0.65332 0.490212)"/>
</clipPath>
</defs>
</svg>
