<svg width="80" height="18" viewBox="0 0 80 18" fill="none" xmlns="http://www.w3.org/2000/svg">
<path opacity="0.5" d="M10.7545 6.59338C10.9993 6.83294 11.3087 6.99593 11.6448 7.0624C11.9808 7.12888 12.329 7.09595 12.6466 6.96766C12.9642 6.83936 13.2376 6.62127 13.4332 6.34005C13.6288 6.05883 13.7382 5.72669 13.748 5.38427C13.7578 5.04185 13.6675 4.704 13.4883 4.41206C13.3091 4.12012 13.0487 3.88676 12.7389 3.74052C12.4291 3.59428 12.0834 3.54151 11.7441 3.58867C11.4048 3.63583 11.0866 3.78087 10.8285 4.00605C10.9498 4.21938 11.0405 4.45205 11.0951 4.69805C11.2315 4.50685 11.4256 4.36451 11.6489 4.29203C11.8723 4.21955 12.113 4.22077 12.3356 4.29549C12.5582 4.37022 12.7509 4.5145 12.8853 4.70707C13.0197 4.89963 13.0886 5.13028 13.0819 5.36499C13.0753 5.59971 12.9933 5.82607 12.8482 6.01069C12.7032 6.19531 12.5026 6.32842 12.2761 6.39039C12.0496 6.45235 11.8092 6.43989 11.5903 6.35485C11.3715 6.2698 11.1857 6.11668 11.0605 5.91805C10.9931 6.15729 10.8899 6.38497 10.7545 6.59338ZM6.47781 4.00538C6.21966 3.7802 5.90146 3.63516 5.56217 3.58801C5.22287 3.54085 4.87718 3.59362 4.5674 3.73985C4.25763 3.88609 3.9972 4.11946 3.81798 4.4114C3.63876 4.70333 3.54853 5.04118 3.55832 5.3836C3.56811 5.72602 3.67751 6.05816 3.87312 6.33938C4.06873 6.6206 4.34207 6.8387 4.6597 6.96699C4.97733 7.09529 5.32547 7.12821 5.66152 7.06174C5.99756 6.99526 6.30695 6.83227 6.55181 6.59271C6.41666 6.38447 6.31373 6.15702 6.24648 5.91805C6.12015 6.11945 5.93169 6.27425 5.70958 6.35904C5.48747 6.44384 5.2438 6.45402 5.01539 6.38805C4.78699 6.32208 4.58627 6.18355 4.44357 5.99339C4.30088 5.80323 4.22397 5.57179 4.22448 5.33405C4.22461 5.10203 4.29841 4.87604 4.43525 4.68867C4.57208 4.5013 4.76488 4.36222 4.98585 4.29148C5.20682 4.22074 5.44455 4.22199 5.66476 4.29506C5.88497 4.36813 6.07629 4.50924 6.21114 4.69805C6.26581 4.45138 6.35648 4.21871 6.47781 4.00538ZM3.78715 7.43671C3.58715 7.49005 3.38981 7.55671 3.19315 7.62205L3.02381 7.67805C2.74385 7.76949 2.49143 7.93 2.28986 8.14473C2.08828 8.35947 1.94405 8.62153 1.87048 8.90671L1.67181 10.3287C1.59648 10.8727 1.88848 11.4447 2.48515 11.5867C2.65003 11.6272 2.8467 11.666 3.07515 11.7034C3.11839 11.7103 3.16259 11.7087 3.20521 11.6986C3.24783 11.6885 3.28804 11.6701 3.32354 11.6444C3.35905 11.6187 3.38915 11.5863 3.41213 11.549C3.43511 11.5117 3.45052 11.4703 3.45748 11.427C3.46444 11.3838 3.46281 11.3396 3.45269 11.297C3.44257 11.2544 3.42416 11.2142 3.3985 11.1786C3.37284 11.1431 3.34043 11.113 3.30314 11.0901C3.26585 11.0671 3.22439 11.0517 3.18115 11.0447C2.9992 11.016 2.81841 10.9804 2.63915 10.938C2.43715 10.89 2.29515 10.6887 2.33248 10.42L2.52115 9.05404C2.61515 8.70738 2.88115 8.35404 3.23181 8.23871C3.44115 8.17005 3.96114 8.07205 3.96114 8.07205C4.24114 8.23871 4.34115 8.30605 4.34115 8.30605C4.42032 8.34163 4.51024 8.34492 4.59181 8.31523C4.67337 8.28555 4.74013 8.22521 4.77791 8.14706C4.81568 8.06891 4.82148 7.97911 4.79407 7.89676C4.76666 7.8144 4.70821 7.74598 4.63115 7.70605C4.56359 7.67182 4.49781 7.63538 4.43381 7.59671C4.23581 7.47938 4.04715 7.36738 3.78715 7.43671ZM14.1131 7.62205C13.9165 7.55605 13.7198 7.49071 13.5191 7.43671C13.2591 7.36738 13.0705 7.47938 12.8725 7.59671C12.8085 7.63538 12.7427 7.67182 12.6751 7.70605C12.5981 7.74598 12.5396 7.8144 12.5122 7.89676C12.4848 7.97911 12.4906 8.06891 12.5284 8.14706C12.5662 8.22521 12.6329 8.28555 12.7145 8.31523C12.796 8.34492 12.886 8.34163 12.9651 8.30605C12.9651 8.30605 13.0651 8.23871 13.3451 8.07205C13.3451 8.07205 13.8651 8.17005 14.0745 8.23871C14.4251 8.35404 14.6905 8.70738 14.7851 9.05404L14.9738 10.42C15.0111 10.6887 14.8691 10.89 14.6671 10.938C14.5183 10.9745 14.3376 11.01 14.1251 11.0447C14.0378 11.0589 13.9597 11.1071 13.9079 11.1789C13.8823 11.2144 13.8639 11.2547 13.8538 11.2973C13.8437 11.3399 13.8421 11.3841 13.8491 11.4274C13.8561 11.4706 13.8716 11.5121 13.8946 11.5493C13.9176 11.5866 13.9478 11.619 13.9833 11.6446C14.0551 11.6964 14.1445 11.7175 14.2318 11.7034C14.4594 11.6656 14.6558 11.6267 14.8211 11.5867C15.4178 11.4447 15.7098 10.8734 15.6345 10.3287L15.4351 8.90671C15.3621 8.62126 15.2181 8.35891 15.0165 8.14409C14.8148 7.92927 14.5621 7.76894 14.2818 7.67805L14.1131 7.62205Z" fill="white"/>
<path d="M8.65356 2.73872C7.99052 2.73872 7.35463 3.00212 6.88579 3.47096C6.41695 3.9398 6.15356 4.57568 6.15356 5.23872C6.15356 5.90177 6.41695 6.53765 6.88579 7.00649C7.35463 7.47533 7.99052 7.73872 8.65356 7.73872C9.3166 7.73872 9.95248 7.47533 10.4213 7.00649C10.8902 6.53765 11.1536 5.90177 11.1536 5.23872C11.1536 4.57568 10.8902 3.9398 10.4213 3.47096C9.95248 3.00212 9.3166 2.73872 8.65356 2.73872ZM7.15356 5.23872C7.15356 4.8409 7.31159 4.45937 7.5929 4.17806C7.8742 3.89676 8.25573 3.73872 8.65356 3.73872C9.05138 3.73872 9.43291 3.89676 9.71422 4.17806C9.99552 4.45937 10.1536 4.8409 10.1536 5.23872C10.1536 5.63655 9.99552 6.01808 9.71422 6.29938C9.43291 6.58069 9.05138 6.73872 8.65356 6.73872C8.25573 6.73872 7.8742 6.58069 7.5929 6.29938C7.31159 6.01808 7.15356 5.63655 7.15356 5.23872ZM10.8102 8.18206C10.4036 8.06672 10.0189 8.20472 9.75556 8.38006C9.51556 8.53872 9.12756 8.72939 8.65356 8.72939C8.17956 8.72939 7.79089 8.53872 7.55156 8.38006C7.28756 8.20472 6.90289 8.06672 6.49622 8.18206C6.38956 8.21207 6.28354 8.2443 6.17822 8.27872L5.53822 8.48872C5.14063 8.61796 4.78217 8.84561 4.49615 9.15052C4.21012 9.45543 4.00582 9.8277 3.90222 10.2327L3.89556 10.2594L3.62356 12.2261C3.51622 13.0021 3.93156 13.8214 4.78622 14.0247C5.56622 14.2107 6.82089 14.4054 8.65289 14.4054C10.4856 14.4054 11.7402 14.2107 12.5202 14.0254C13.3749 13.8214 13.7909 13.0021 13.6829 12.2267L13.4109 10.2601L13.4042 10.2334C13.3007 9.82817 13.0963 9.45571 12.8102 9.15068C12.524 8.84564 12.1653 8.61793 11.7676 8.48872L11.1282 8.27872C11.0229 8.2445 10.9169 8.21206 10.8102 8.18139M10.3082 9.21206C10.4242 9.13539 10.5069 9.13406 10.5382 9.14339C10.6316 9.17006 10.7242 9.19828 10.8162 9.22806L11.4562 9.43806C11.9362 9.59606 12.2989 9.97939 12.4282 10.4534L12.6929 12.3627C12.7429 12.7254 12.5529 12.9887 12.2889 13.0514C11.5909 13.2181 10.4142 13.4047 8.65356 13.4047C6.89289 13.4047 5.71556 13.2181 5.01756 13.0514C4.75422 12.9887 4.56422 12.7254 4.61356 12.3627L4.87822 10.4534C4.94408 10.2172 5.06736 10.0009 5.23707 9.82385C5.40678 9.64681 5.61765 9.51451 5.85089 9.43872L6.49089 9.22872C6.58244 9.1985 6.67489 9.17028 6.76822 9.14406C6.80022 9.13472 6.88156 9.13606 6.99822 9.21272C7.33222 9.43472 7.91289 9.72939 8.65356 9.72939C9.39422 9.72939 9.97356 9.43472 10.3082 9.21272" fill="white"/>
<path d="M35.0797 4.87651V12.5721H33.8174V7.30143L31.47 12.5721H30.5953L28.2368 7.30143V12.5721H26.9745V4.87651H28.3364L31.0382 10.9111L33.7289 4.87651H35.0797ZM42.3891 6.47098L38.6465 15.4399H37.3399L38.5801 12.4724L36.1773 6.47098H37.5835L39.2998 11.1215L41.0825 6.47098H42.3891ZM51.506 4.87651V5.90627H49.4576V12.5721H48.1953V5.90627H46.1357V4.87651H51.506ZM58.5343 9.37203C58.5343 9.60087 58.5195 9.80756 58.49 9.99211H53.8284C53.8653 10.4793 54.0462 10.8705 54.371 11.1658C54.6958 11.4611 55.0944 11.6087 55.5668 11.6087C56.2459 11.6087 56.7258 11.3245 57.0063 10.7561H58.3682C58.1837 11.3171 57.8478 11.7785 57.3606 12.1402C56.8808 12.4945 56.2828 12.6717 55.5668 12.6717C54.9836 12.6717 54.4595 12.5425 53.9945 12.2842C53.5368 12.0184 53.1751 11.6493 52.9094 11.1769C52.651 10.6971 52.5218 10.1434 52.5218 9.51598C52.5218 8.88852 52.6473 8.33858 52.8983 7.86614C53.1566 7.38632 53.5147 7.01723 53.9723 6.75887C54.4374 6.50051 54.9689 6.37132 55.5668 6.37132C56.1426 6.37132 56.6556 6.49682 57.1059 6.7478C57.5562 6.99878 57.9068 7.35311 58.1578 7.81078C58.4088 8.26107 58.5343 8.78149 58.5343 9.37203ZM57.2166 8.97342C57.2093 8.50836 57.0432 8.13558 56.7184 7.85507C56.3936 7.57456 55.9913 7.43431 55.5114 7.43431C55.0759 7.43431 54.7031 7.57456 54.3931 7.85507C54.0831 8.1282 53.8985 8.50098 53.8395 8.97342H57.2166ZM59.5139 9.49383C59.5139 8.88114 59.6394 8.33858 59.8904 7.86614C60.1488 7.39371 60.4957 7.02831 60.9313 6.76994C61.3742 6.5042 61.8614 6.37132 62.3929 6.37132C62.8727 6.37132 63.2897 6.46729 63.6441 6.65922C64.0058 6.84376 64.2937 7.07629 64.5077 7.3568V6.47098H65.7811V12.5721H64.5077V11.6641C64.2937 11.952 64.0021 12.1919 63.633 12.3838C63.2639 12.5757 62.8431 12.6717 62.3707 12.6717C61.8466 12.6717 61.3668 12.5388 60.9313 12.2731C60.4957 12 60.1488 11.6235 59.8904 11.1437C59.6394 10.6565 59.5139 10.1065 59.5139 9.49383ZM64.5077 9.51598C64.5077 9.09522 64.4192 8.72982 64.242 8.41978C64.0722 8.10974 63.8471 7.87352 63.5666 7.71112C63.2861 7.54872 62.9834 7.46752 62.6586 7.46752C62.3338 7.46752 62.0311 7.54872 61.7506 7.71112C61.4701 7.86614 61.2413 8.09867 61.0641 8.40871C60.8943 8.71136 60.8095 9.07307 60.8095 9.49383C60.8095 9.9146 60.8943 10.2837 61.0641 10.6011C61.2413 10.9185 61.4701 11.1621 61.7506 11.3319C62.0385 11.4943 62.3412 11.5755 62.6586 11.5755C62.9834 11.5755 63.2861 11.4943 63.5666 11.3319C63.8471 11.1695 64.0722 10.9333 64.242 10.6233C64.4192 10.3058 64.5077 9.93674 64.5077 9.51598ZM74.9828 6.37132C75.4626 6.37132 75.8907 6.47098 76.2672 6.67029C76.6511 6.8696 76.95 7.16487 77.1641 7.55611C77.3855 7.94734 77.4963 8.41978 77.4963 8.97342V12.5721H76.2451V9.16165C76.2451 8.6154 76.1085 8.19832 75.8354 7.91043C75.5622 7.61516 75.1895 7.46752 74.717 7.46752C74.2446 7.46752 73.8681 7.61516 73.5876 7.91043C73.3145 8.19832 73.1779 8.6154 73.1779 9.16165V12.5721H71.9267V9.16165C71.9267 8.6154 71.7901 8.19832 71.517 7.91043C71.2439 7.61516 70.8711 7.46752 70.3987 7.46752C69.9262 7.46752 69.5497 7.61516 69.2692 7.91043C68.9961 8.19832 68.8595 8.6154 68.8595 9.16165V12.5721H67.5973V6.47098H68.8595V7.16856C69.0662 6.91758 69.3283 6.72196 69.6457 6.58171C69.9631 6.44145 70.3027 6.37132 70.6644 6.37132C71.1516 6.37132 71.5871 6.47467 71.971 6.68136C72.3548 6.88805 72.6501 7.18702 72.8568 7.57825C73.0413 7.20916 73.3292 6.91758 73.7205 6.70351C74.1117 6.48205 74.5325 6.37132 74.9828 6.37132Z" fill="white"/>
</svg>
