<svg width="24" height="24" viewBox="0 0 24 24" fill="none" xmlns="http://www.w3.org/2000/svg">
<path fill-rule="evenodd" clip-rule="evenodd" d="M20.997 10.974H21C21.551 10.974 21.999 11.42 22 11.971C22.008 14.642 20.975 17.157 19.091 19.051C17.208 20.945 14.7 21.992 12.029 22H12C9.33905 22 6.83605 20.968 4.94905 19.091C3.05505 17.208 2.00805 14.7 2.00005 12.029C1.99205 9.357 3.02505 6.843 4.90905 4.949C6.79205 3.055 9.30005 2.008 11.971 2C12.766 2.012 13.576 2.092 14.352 2.278C14.888 2.408 15.219 2.948 15.089 3.485C14.96 4.021 14.417 4.351 13.883 4.223C13.262 4.073 12.603 4.01 11.977 4C9.84005 4.006 7.83305 4.844 6.32705 6.359C4.82005 7.874 3.99405 9.886 4.00005 12.023C4.00605 14.16 4.84405 16.166 6.35905 17.673C7.86905 19.174 9.87105 20 12 20H12.023C14.16 19.994 16.167 19.156 17.673 17.641C19.18 16.125 20.006 14.114 20 11.977C19.999 11.425 20.445 10.975 20.997 10.974ZM8.29325 11.2931C8.68425 10.9021 9.31625 10.9021 9.70725 11.2931L11.9513 13.5371L18.2482 6.34111C18.6122 5.92811 19.2432 5.88411 19.6593 6.24811C20.0743 6.61111 20.1162 7.24311 19.7523 7.65911L12.7523 15.6591C12.5703 15.8671 12.3103 15.9901 12.0332 16.0001H12.0002C11.7352 16.0001 11.4812 15.8951 11.2933 15.7071L8.29325 12.7071C7.90225 12.3161 7.90225 11.6841 8.29325 11.2931Z" fill="#9295A6"/>
</svg>
