<svg width="74" height="18" viewBox="0 0 74 18" fill="none" xmlns="http://www.w3.org/2000/svg">
<path fill-rule="evenodd" clip-rule="evenodd" d="M10.0775 3.64007C10.0488 3.3514 10.0341 3.20673 9.97615 3.0934C9.90202 2.95043 9.77864 2.83913 9.62882 2.78007C9.51082 2.73273 9.36548 2.73273 9.07482 2.73273H8.23215C7.94148 2.73273 7.79615 2.73273 7.67882 2.7794C7.52852 2.83866 7.40486 2.95048 7.33082 3.09407C7.27282 3.20673 7.25815 3.3514 7.22948 3.64073C7.17482 4.1874 7.14748 4.46073 7.03282 4.61073C6.96145 4.7044 6.86655 4.7775 6.75776 4.82258C6.64897 4.86767 6.53019 4.88313 6.41348 4.8674C6.22682 4.84207 6.01348 4.66807 5.58815 4.32007C5.36348 4.13607 5.25082 4.04407 5.13015 4.0054C4.97647 3.95629 4.81019 3.96458 4.66215 4.02873C4.54548 4.07873 4.44215 4.18207 4.23748 4.3874L3.64148 4.98273C3.43615 5.18807 3.33348 5.2914 3.28282 5.4074C3.21866 5.55544 3.21037 5.72172 3.25948 5.8754C3.29815 5.99673 3.39015 6.10873 3.57415 6.33407C3.92282 6.76007 4.09682 6.97273 4.12215 7.16007C4.13776 7.27667 4.12223 7.39532 4.07715 7.50397C4.03207 7.61263 3.95904 7.70743 3.86548 7.77873C3.71548 7.8934 3.44215 7.92073 2.89482 7.9754C2.60548 8.00407 2.46082 8.01873 2.34815 8.07673C2.20468 8.15061 2.09288 8.27402 2.03348 8.42407C1.98682 8.54207 1.98682 8.6874 1.98682 8.97807V9.82073C1.98682 10.1114 1.98682 10.2567 2.03348 10.3741C2.09274 10.5244 2.20456 10.648 2.34815 10.7221C2.46082 10.7801 2.60548 10.7947 2.89482 10.8234C3.44148 10.8781 3.71482 10.9054 3.86548 11.0201C3.95892 11.0915 4.03182 11.1863 4.07678 11.2949C4.12174 11.4036 4.13716 11.5222 4.12148 11.6387C4.09682 11.8261 3.92282 12.0387 3.57482 12.4647C3.39015 12.6894 3.29815 12.8021 3.25948 12.9227C3.21037 13.0764 3.21866 13.2427 3.28282 13.3907C3.33348 13.5074 3.43615 13.6107 3.64148 13.8154L4.23748 14.4114C4.44282 14.6167 4.54548 14.7194 4.66215 14.7701C4.81019 14.8342 4.97647 14.8425 5.13015 14.7934C5.25082 14.7547 5.36348 14.6627 5.58815 14.4787C6.01415 14.1301 6.22682 13.9561 6.41415 13.9307C6.53075 13.9151 6.6494 13.9307 6.75806 13.9757C6.86671 14.0208 6.96151 14.0938 7.03282 14.1874C7.14748 14.3374 7.17482 14.6114 7.22948 15.1587C7.25815 15.4474 7.27282 15.5921 7.33082 15.7054C7.40495 15.8484 7.52833 15.9597 7.67815 16.0187C7.79615 16.0661 7.94148 16.0661 8.23215 16.0661H9.07482C9.36548 16.0661 9.51082 16.0661 9.62815 16.0194C9.77833 15.9603 9.90198 15.8487 9.97615 15.7054C10.0341 15.5921 10.0488 15.4474 10.0775 15.1587C10.1321 14.6107 10.1595 14.3374 10.2741 14.1874C10.3455 14.0937 10.4404 14.0206 10.5492 13.9756C10.658 13.9305 10.7768 13.915 10.8935 13.9307C11.0801 13.9561 11.2935 14.1301 11.7188 14.4781C11.9435 14.6621 12.0561 14.7541 12.1768 14.7927C12.3305 14.8418 12.4968 14.8336 12.6448 14.7694C12.7615 14.7194 12.8648 14.6161 13.0695 14.4107L13.6655 13.8154C13.8708 13.6101 13.9735 13.5074 14.0241 13.3907C14.0883 13.2427 14.0966 13.0764 14.0475 12.9227C14.0088 12.8014 13.9168 12.6894 13.7328 12.4647C13.3848 12.0387 13.2108 11.8261 13.1855 11.6394C13.1696 11.5226 13.185 11.4037 13.2301 11.2948C13.2752 11.1858 13.3484 11.0908 13.4421 11.0194C13.5921 10.9061 13.8655 10.8781 14.4128 10.8234C14.7015 10.7947 14.8461 10.7801 14.9595 10.7221C15.1027 10.6481 15.2143 10.5247 15.2735 10.3747C15.3201 10.2567 15.3201 10.1114 15.3201 9.82073V8.97807C15.3201 8.6874 15.3201 8.54207 15.2735 8.42473C15.2142 8.27444 15.1024 8.15078 14.9588 8.07673C14.8461 8.01873 14.7015 8.00407 14.4121 7.9754C13.8655 7.92073 13.5921 7.8934 13.4415 7.77873C13.348 7.70735 13.2751 7.61252 13.2302 7.50387C13.1852 7.39522 13.1698 7.27661 13.1855 7.16007C13.2101 6.97273 13.3841 6.76007 13.7321 6.33407C13.9168 6.1094 14.0088 5.99673 14.0475 5.87607C14.0966 5.72238 14.0883 5.55611 14.0241 5.40807C13.9735 5.2914 13.8708 5.18807 13.6655 4.9834L13.0695 4.3874C12.8641 4.18207 12.7615 4.0794 12.6448 4.02873C12.4968 3.96458 12.3305 3.95629 12.1768 4.0054C12.0561 4.04407 11.9435 4.13607 11.7188 4.32007C11.2928 4.66873 11.0801 4.84273 10.8935 4.8674C10.7768 4.8832 10.6581 4.86784 10.5493 4.82288C10.4405 4.77791 10.3456 4.70495 10.2741 4.6114C10.1595 4.4614 10.1321 4.1874 10.0775 3.64007Z" fill="white" fill-opacity="0.25"/>
<path d="M8.65332 11.3994C9.75789 11.3994 10.6533 10.504 10.6533 9.3994C10.6533 8.29483 9.75789 7.3994 8.65332 7.3994C7.54875 7.3994 6.65332 8.29483 6.65332 9.3994C6.65332 10.504 7.54875 11.3994 8.65332 11.3994Z" fill="white"/>
<path d="M29.5102 12.9769C28.9934 12.9769 28.5284 12.8883 28.115 12.7112C27.7016 12.5266 27.3768 12.2683 27.1406 11.9361C26.9044 11.6039 26.7863 11.2163 26.7863 10.7734H28.1371C28.1667 11.1056 28.2958 11.3787 28.5247 11.5928C28.7609 11.8069 29.0894 11.9139 29.5102 11.9139C29.9457 11.9139 30.2852 11.8106 30.5288 11.6039C30.7724 11.3898 30.8942 11.1167 30.8942 10.7845C30.8942 10.5261 30.8167 10.3158 30.6617 10.1534C30.5141 9.99096 30.3258 9.86547 30.097 9.77689C29.8756 9.68831 29.5655 9.59234 29.1669 9.489C28.6649 9.35613 28.2552 9.22325 27.9378 9.09038C27.6278 8.95013 27.362 8.73605 27.1406 8.44816C26.9191 8.16027 26.8084 7.77642 26.8084 7.2966C26.8084 6.85369 26.9191 6.46614 27.1406 6.13396C27.362 5.80178 27.6721 5.54711 28.0707 5.36994C28.4693 5.19278 28.9307 5.1042 29.4548 5.1042C30.2004 5.1042 30.8094 5.29243 31.2818 5.66891C31.7616 6.038 32.0274 6.54734 32.079 7.19694H30.6839C30.6617 6.91643 30.5288 6.67653 30.2852 6.47722C30.0416 6.27791 29.7205 6.17825 29.3219 6.17825C28.9602 6.17825 28.6649 6.27053 28.4361 6.45507C28.2073 6.63962 28.0928 6.90536 28.0928 7.25231C28.0928 7.48853 28.163 7.68414 28.3032 7.83916C28.4509 7.9868 28.6354 8.10491 28.8569 8.19349C29.0783 8.28207 29.381 8.37803 29.7648 8.48138C30.2742 8.62163 30.6876 8.76189 31.005 8.90214C31.3298 9.0424 31.6029 9.26016 31.8244 9.55544C32.0532 9.84333 32.1676 10.2309 32.1676 10.7181C32.1676 11.1093 32.0606 11.4784 31.8465 11.8253C31.6398 12.1723 31.3335 12.4528 30.9275 12.6669C30.5288 12.8736 30.0564 12.9769 29.5102 12.9769ZM39.407 9.69938C39.407 9.92822 39.3922 10.1349 39.3627 10.3195H34.7011C34.738 10.8067 34.9188 11.1979 35.2436 11.4932C35.5684 11.7884 35.967 11.9361 36.4395 11.9361C37.1186 11.9361 37.5984 11.6519 37.8789 11.0835H39.2409C39.0563 11.6445 38.7205 12.1059 38.2333 12.4676C37.7534 12.8219 37.1555 12.9991 36.4395 12.9991C35.8563 12.9991 35.3322 12.8699 34.8672 12.6115C34.4095 12.3458 34.0478 11.9767 33.782 11.5042C33.5237 11.0244 33.3945 10.4708 33.3945 9.84333C33.3945 9.21587 33.52 8.66593 33.771 8.19349C34.0293 7.71367 34.3873 7.34458 34.845 7.08622C35.3101 6.82785 35.8416 6.69867 36.4395 6.69867C37.0153 6.69867 37.5283 6.82416 37.9786 7.07514C38.4289 7.32613 38.7795 7.68045 39.0305 8.13813C39.2815 8.58842 39.407 9.10884 39.407 9.69938ZM38.0893 9.30076C38.0819 8.83571 37.9158 8.46293 37.591 8.18242C37.2662 7.90191 36.8639 7.76165 36.3841 7.76165C35.9486 7.76165 35.5758 7.90191 35.2658 8.18242C34.9557 8.45554 34.7712 8.82833 34.7121 9.30076H38.0893ZM42.28 7.82809V11.2053C42.28 11.4341 42.3317 11.6002 42.4351 11.7035C42.5458 11.7995 42.7303 11.8475 42.9887 11.8475H43.7638V12.8994H42.7672C42.1988 12.8994 41.7633 12.7665 41.4607 12.5008C41.158 12.235 41.0067 11.8032 41.0067 11.2053V7.82809H40.287V6.79833H41.0067V5.28136H42.28V6.79833H43.7638V7.82809H42.28ZM46.5581 7.82809V11.2053C46.5581 11.4341 46.6097 11.6002 46.7131 11.7035C46.8238 11.7995 47.0084 11.8475 47.2667 11.8475H48.0418V12.8994H47.0453C46.4769 12.8994 46.0413 12.7665 45.7387 12.5008C45.436 12.235 45.2847 11.8032 45.2847 11.2053V7.82809H44.565V6.79833H45.2847V5.28136H46.5581V6.79833H48.0418V7.82809H46.5581ZM50.0056 5.99002C49.7768 5.99002 49.5849 5.91251 49.4298 5.75749C49.2748 5.60247 49.1973 5.41054 49.1973 5.18171C49.1973 4.95287 49.2748 4.76094 49.4298 4.60593C49.5849 4.45091 49.7768 4.3734 50.0056 4.3734C50.2271 4.3734 50.4153 4.45091 50.5703 4.60593C50.7253 4.76094 50.8029 4.95287 50.8029 5.18171C50.8029 5.41054 50.7253 5.60247 50.5703 5.75749C50.4153 5.91251 50.2271 5.99002 50.0056 5.99002ZM50.6257 6.79833V12.8994H49.3634V6.79833H50.6257ZM55.5194 6.69867C55.9992 6.69867 56.4273 6.79833 56.8038 6.99763C57.1877 7.19694 57.4866 7.49222 57.7007 7.88345C57.9148 8.27469 58.0218 8.74713 58.0218 9.30076V12.8994H56.7706V9.489C56.7706 8.94274 56.634 8.52567 56.3609 8.23778C56.0878 7.94251 55.715 7.79487 55.2426 7.79487C54.7701 7.79487 54.3936 7.94251 54.1131 8.23778C53.84 8.52567 53.7034 8.94274 53.7034 9.489V12.8994H52.4412V6.79833H53.7034V7.49591C53.9101 7.24493 54.1722 7.04931 54.4896 6.90905C54.8144 6.7688 55.1577 6.69867 55.5194 6.69867ZM62.2483 6.69867C62.7207 6.69867 63.1378 6.79464 63.4995 6.98656C63.8686 7.17111 64.1565 7.40364 64.3632 7.68414V6.79833H65.6365V12.9991C65.6365 13.5601 65.5184 14.0583 65.2822 14.4939C65.046 14.9368 64.7027 15.2837 64.2524 15.5347C63.8095 15.7857 63.278 15.9112 62.658 15.9112C61.8312 15.9112 61.1447 15.7156 60.5984 15.3243C60.0522 14.9405 59.7421 14.4164 59.6683 13.752H60.9195C61.0155 14.0694 61.2185 14.3241 61.5285 14.516C61.846 14.7153 62.2224 14.815 62.658 14.815C63.1673 14.815 63.577 14.66 63.887 14.3499C64.2044 14.0399 64.3632 13.5896 64.3632 12.9991V11.9804C64.1491 12.2683 63.8575 12.5119 63.4884 12.7112C63.1267 12.9031 62.7133 12.9991 62.2483 12.9991C61.7168 12.9991 61.2296 12.8662 60.7867 12.6004C60.3511 12.3273 60.0042 11.9508 59.7458 11.471C59.4948 10.9838 59.3694 10.4339 59.3694 9.82118C59.3694 9.20849 59.4948 8.66593 59.7458 8.19349C60.0042 7.72105 60.3511 7.35565 60.7867 7.09729C61.2296 6.83154 61.7168 6.69867 62.2483 6.69867ZM64.3632 9.84333C64.3632 9.42256 64.2746 9.05716 64.0974 8.74713C63.9276 8.43709 63.7025 8.20087 63.422 8.03847C63.1415 7.87607 62.8388 7.79487 62.514 7.79487C62.1892 7.79487 61.8866 7.87607 61.606 8.03847C61.3255 8.19349 61.0967 8.42602 60.9195 8.73605C60.7498 9.03871 60.6649 9.40042 60.6649 9.82118C60.6649 10.2419 60.7498 10.611 60.9195 10.9285C61.0967 11.2459 61.3255 11.4895 61.606 11.6593C61.8939 11.8217 62.1966 11.9029 62.514 11.9029C62.8388 11.9029 63.1415 11.8217 63.422 11.6593C63.7025 11.4969 63.9276 11.2606 64.0974 10.9506C64.2746 10.6332 64.3632 10.2641 64.3632 9.84333ZM69.6672 12.9991C69.1874 12.9991 68.7556 12.9142 68.3717 12.7444C67.9952 12.5672 67.6963 12.331 67.4748 12.0357C67.2534 11.7331 67.1352 11.3972 67.1205 11.0281H68.4271C68.4492 11.2865 68.571 11.5042 68.7925 11.6814C69.0213 11.8512 69.3055 11.9361 69.6451 11.9361C69.9994 11.9361 70.2725 11.8696 70.4644 11.7368C70.6638 11.5965 70.7634 11.4193 70.7634 11.2053C70.7634 10.9764 70.6527 10.8067 70.4312 10.6959C70.2172 10.5852 69.8739 10.4634 69.4015 10.3305C68.9438 10.205 68.571 10.0832 68.2831 9.96513C67.9952 9.84702 67.7442 9.66616 67.5302 9.42256C67.3235 9.17896 67.2201 8.85785 67.2201 8.45923C67.2201 8.13443 67.3161 7.83916 67.508 7.57342C67.7 7.30029 67.9731 7.08622 68.3274 6.9312C68.6891 6.77618 69.1025 6.69867 69.5676 6.69867C70.2614 6.69867 70.8188 6.87584 71.2395 7.23016C71.6677 7.57711 71.8965 8.05323 71.926 8.65854H70.6638C70.6416 8.38542 70.5309 8.16765 70.3316 8.00525C70.1323 7.84285 69.8628 7.76165 69.5233 7.76165C69.1911 7.76165 68.9364 7.8244 68.7592 7.94989C68.5821 8.07538 68.4935 8.24147 68.4935 8.44816C68.4935 8.61056 68.5526 8.74713 68.6707 8.85785C68.7888 8.96858 68.9327 9.05716 69.1025 9.1236C69.2723 9.18265 69.5233 9.26016 69.8554 9.35613C70.2984 9.47423 70.6601 9.59604 70.9406 9.72153C71.2285 9.83963 71.4758 10.0168 71.6824 10.253C71.8891 10.4892 71.9962 10.803 72.0036 11.1942C72.0036 11.5411 71.9076 11.8512 71.7157 12.1243C71.5237 12.3974 71.2506 12.6115 70.8963 12.7665C70.5493 12.9215 70.1396 12.9991 69.6672 12.9991Z" fill="white"/>
</svg>
