<svg width="24" height="24" viewBox="0 0 24 24" fill="none" xmlns="http://www.w3.org/2000/svg">
<path d="M9.11264 7.17039L5.97103 16.5411H3.92053L2.37563 9.0635C2.28052 8.6023 2.19923 8.43455 1.91405 8.23873C1.44689 7.92303 0.678469 7.62684 0 7.44244L0.0474844 7.17045H3.3465C3.76725 7.17045 4.14553 7.52125 4.24064 8.126L5.05753 13.5495L7.07522 7.17045H9.11264V7.17039ZM17.1445 13.4802C17.1536 11.0084 14.4082 10.8739 14.428 9.76803C14.4333 9.43047 14.6893 9.07328 15.2498 8.98311C15.5281 8.93682 16.2941 8.90289 17.1623 9.40111L17.5026 7.4149C17.0355 7.20297 16.435 7 15.6888 7C13.7721 7 12.4228 8.27436 12.4114 10.0977C12.3989 11.4462 13.3741 12.1986 14.1097 12.6476C14.865 13.1071 15.1176 13.4005 15.1149 13.8126C15.11 14.4415 14.5123 14.7164 13.9547 14.7287C12.9795 14.7477 12.4139 14.3993 11.9621 14.1364L11.611 16.1908C12.0635 16.4505 12.9013 16.676 13.7683 16.6893C15.8054 16.6892 17.1381 15.4284 17.1445 13.4802ZM22.206 16.5411H24L22.4346 7.17045H20.7785C20.4063 7.17045 20.0926 7.44174 19.9529 7.85734L17.0446 16.5411H19.0802L19.4842 15.1417H21.9725L22.206 16.5411ZM20.0421 13.221L21.0632 9.70252L21.6507 13.221H20.0421ZM11.884 7.17039L10.2795 16.5411H8.33981L9.94472 7.17039H11.884Z" fill="#5367FF"/>
</svg>
