<svg width="63" height="18" viewBox="0 0 63 18" fill="none" xmlns="http://www.w3.org/2000/svg">
<path d="M1.97168 6.34123H15.1535" stroke="white" stroke-width="1.18636" stroke-miterlimit="10" stroke-linecap="round" stroke-linejoin="round"/>
<path d="M4.60791 11.614H5.92609" stroke="white" stroke-width="1.18636" stroke-miterlimit="10" stroke-linecap="round" stroke-linejoin="round"/>
<path d="M7.57373 11.614H10.2101" stroke="white" stroke-width="1.18636" stroke-miterlimit="10" stroke-linecap="round" stroke-linejoin="round"/>
<path d="M4.89804 3.04591H12.2205C14.5669 3.04591 15.1535 3.62591 15.1535 5.93932V11.3505C15.1535 13.6639 14.5669 14.2439 12.2271 14.2439H4.89804C2.55827 14.2505 1.97168 13.6705 1.97168 11.357V5.93932C1.97168 3.62591 2.55827 3.04591 4.89804 3.04591Z" stroke="white" stroke-width="1.18636" stroke-linecap="round" stroke-linejoin="round"/>
<path d="M36.8137 5.0402L34.5327 12.7357H33.1043L31.4877 6.91149L29.7714 12.7357L28.3541 12.7468L26.1728 5.0402H27.5126L29.1071 11.3074L30.8344 5.0402H32.2517L33.8573 11.2741L35.4628 5.0402H36.8137ZM37.5922 9.65753C37.5922 9.04484 37.7177 8.50228 37.9687 8.02984C38.227 7.5574 38.574 7.192 39.0095 6.93364C39.4524 6.66789 39.9396 6.53502 40.4711 6.53502C40.9509 6.53502 41.368 6.63098 41.7223 6.82291C42.084 7.00746 42.3719 7.23998 42.586 7.52049V6.63468H43.8594V12.7357H42.586V11.8278C42.3719 12.1157 42.0803 12.3556 41.7112 12.5475C41.3422 12.7394 40.9214 12.8354 40.449 12.8354C39.9248 12.8354 39.445 12.7025 39.0095 12.4368C38.574 12.1637 38.227 11.7872 37.9687 11.3074C37.7177 10.8202 37.5922 10.2702 37.5922 9.65753ZM42.586 9.67968C42.586 9.25891 42.4974 8.89351 42.3202 8.58348C42.1505 8.27344 41.9253 8.03722 41.6448 7.87482C41.3643 7.71242 41.0616 7.63122 40.7368 7.63122C40.412 7.63122 40.1094 7.71242 39.8289 7.87482C39.5484 8.02984 39.3195 8.26237 39.1424 8.5724C38.9726 8.87506 38.8877 9.23677 38.8877 9.65753C38.8877 10.0783 38.9726 10.4474 39.1424 10.7648C39.3195 11.0822 39.5484 11.3258 39.8289 11.4956C40.1168 11.658 40.4194 11.7392 40.7368 11.7392C41.0616 11.7392 41.3643 11.658 41.6448 11.4956C41.9253 11.3332 42.1505 11.097 42.3202 10.7869C42.4974 10.4695 42.586 10.1004 42.586 9.67968ZM46.9378 4.54193V12.7357H45.6755V4.54193H46.9378ZM50.0155 4.54193V12.7357H48.7533V4.54193H50.0155ZM57.4227 9.53573C57.4227 9.76457 57.408 9.97126 57.3784 10.1558H52.7168C52.7537 10.643 52.9346 11.0342 53.2594 11.3295C53.5842 11.6248 53.9828 11.7724 54.4552 11.7724C55.1344 11.7724 55.6142 11.4882 55.8947 10.9198H57.2566C57.0721 11.4808 56.7362 11.9422 56.249 12.3039C55.7692 12.6582 55.1713 12.8354 54.4552 12.8354C53.8721 12.8354 53.348 12.7062 52.8829 12.4479C52.4252 12.1821 52.0635 11.813 51.7978 11.3406C51.5394 10.8608 51.4102 10.3071 51.4102 9.67968C51.4102 9.05222 51.5357 8.50228 51.7867 8.02984C52.0451 7.55002 52.4031 7.18093 52.8608 6.92257C53.3258 6.6642 53.8573 6.53502 54.4552 6.53502C55.031 6.53502 55.5441 6.66051 55.9943 6.91149C56.4446 7.16248 56.7953 7.5168 57.0463 7.97448C57.2972 8.42477 57.4227 8.94518 57.4227 9.53573ZM56.1051 9.13711C56.0977 8.67206 55.9316 8.29928 55.6068 8.01877C55.282 7.73826 54.8797 7.598 54.3999 7.598C53.9643 7.598 53.5916 7.73826 53.2815 8.01877C52.9715 8.29189 52.7869 8.66468 52.7279 9.13711H56.1051ZM60.2958 7.66444V11.0416C60.2958 11.2705 60.3475 11.4365 60.4508 11.5399C60.5615 11.6359 60.7461 11.6838 61.0045 11.6838H61.7795V12.7357H60.783C60.2146 12.7357 59.7791 12.6029 59.4764 12.3371C59.1738 12.0714 59.0224 11.6395 59.0224 11.0416V7.66444H58.3027V6.63468H59.0224V5.11771H60.2958V6.63468H61.7795V7.66444H60.2958Z" fill="white"/>
</svg>
