<svg width="35" height="35" viewBox="0 0 35 35" fill="none" xmlns="http://www.w3.org/2000/svg">
<circle cx="17.5" cy="17.5" r="16" stroke="#EA060A" stroke-width="3"/>
<path d="M8.68428 11.6413L5.76025 12.6959L6.38341 14.8849L8.36471 14.3416V22.8261H10.9212V11.6413H8.68428Z" fill="#F6F3EE"/>
<path d="M19.283 16.994C19.9381 16.4827 20.3535 15.7477 20.3535 14.7411C20.3535 12.568 18.6918 11.4176 16.6306 11.4176C14.5694 11.4176 12.9077 12.568 12.9077 14.7411C12.9077 15.7477 13.3231 16.4827 13.9782 16.994C13.0355 17.6012 12.5242 18.5759 12.5242 19.6784C12.5242 21.7236 13.9942 23.0498 16.6306 23.0498C19.267 23.0498 20.737 21.7236 20.737 19.6784C20.737 18.5759 20.2257 17.6012 19.283 16.994ZM16.6306 13.8143C17.3496 13.8143 17.797 14.2777 17.797 14.9009C17.797 15.524 17.3496 15.9874 16.6306 15.9874C15.9116 15.9874 15.4642 15.524 15.4642 14.9009C15.4642 14.2777 15.9116 13.8143 16.6306 13.8143ZM16.6306 20.653C15.7358 20.653 15.0807 20.1577 15.0807 19.3109C15.0807 18.464 15.7358 17.9687 16.6306 17.9687C17.5254 17.9687 18.1805 18.464 18.1805 19.3109C18.1805 20.1577 17.5254 20.653 16.6306 20.653Z" fill="#F6F3EE"/>
<path d="M29.3688 16.1152H26.8122V13.5587H24.5753V16.1152H22.0188V18.3522H24.5753V20.9087H26.8122V18.3522H29.3688V16.1152Z" fill="#F6F3EE"/>
</svg>
