<svg width="16" height="16" viewBox="0 0 16 16" fill="none" xmlns="http://www.w3.org/2000/svg">
<path d="M0.999587 7.00004H12.1696L7.28959 2.12004C6.89959 1.73004 6.89959 1.09004 7.28959 0.700037C7.3821 0.607333 7.49199 0.533785 7.61296 0.483604C7.73394 0.433422 7.86362 0.407593 7.99459 0.407593C8.12556 0.407593 8.25524 0.433422 8.37621 0.483604C8.49718 0.533785 8.60707 0.607333 8.69959 0.700037L15.2896 7.29004C15.3823 7.38255 15.4558 7.49244 15.506 7.61341C15.5562 7.73439 15.582 7.86407 15.582 7.99504C15.582 8.12601 15.5562 8.25569 15.506 8.37666C15.4558 8.49763 15.3823 8.60752 15.2896 8.70004L8.69959 15.29C8.60701 15.3826 8.49709 15.4561 8.37613 15.5062C8.25517 15.5563 8.12552 15.5821 7.99459 15.5821C7.86366 15.5821 7.73401 15.5563 7.61304 15.5062C7.49208 15.4561 7.38217 15.3826 7.28959 15.29C7.19701 15.1975 7.12357 15.0875 7.07346 14.9666C7.02336 14.8456 6.99757 14.716 6.99757 14.585C6.99757 14.4541 7.02336 14.3245 7.07346 14.2035C7.12357 14.0825 7.19701 13.9726 7.28959 13.88L12.1696 9.00004H0.999587C0.449587 9.00004 -0.000412941 8.55004 -0.000412941 8.00004C-0.000412941 7.45004 0.449587 7.00004 0.999587 7.00004Z" fill="white"/>
</svg>
