<svg width="17" height="16" viewBox="0 0 17 16" fill="none" xmlns="http://www.w3.org/2000/svg">
<path d="M15.5004 7.00004H4.33041L9.21041 2.12004C9.60041 1.73004 9.60041 1.09004 9.21041 0.700037C9.1179 0.607333 9.00801 0.533785 8.88704 0.483604C8.76606 0.433422 8.63638 0.407593 8.50541 0.407593C8.37444 0.407593 8.24476 0.433422 8.12379 0.483604C8.00282 0.533785 7.89293 0.607333 7.80041 0.700037L1.21041 7.29004C1.11771 7.38255 1.04416 7.49244 0.99398 7.61341C0.943799 7.73439 0.917969 7.86407 0.917969 7.99504C0.917969 8.12601 0.943799 8.25569 0.99398 8.37666C1.04416 8.49763 1.11771 8.60752 1.21041 8.70004L7.80041 15.29C7.89299 15.3826 8.00291 15.4561 8.12387 15.5062C8.24483 15.5563 8.37448 15.5821 8.50541 15.5821C8.63634 15.5821 8.76599 15.5563 8.88696 15.5062C9.00792 15.4561 9.11783 15.3826 9.21041 15.29C9.30299 15.1975 9.37643 15.0875 9.42654 14.9666C9.47664 14.8456 9.50243 14.716 9.50243 14.585C9.50243 14.4541 9.47664 14.3245 9.42654 14.2035C9.37643 14.0825 9.30299 13.9726 9.21041 13.88L4.33041 9.00004H15.5004C16.0504 9.00004 16.5004 8.55004 16.5004 8.00004C16.5004 7.45004 16.0504 7.00004 15.5004 7.00004Z" fill="white" fill-opacity="0.4"/>
</svg>
