<svg width="118" height="46" viewBox="0 0 118 46" fill="none" xmlns="http://www.w3.org/2000/svg">
<path d="M19.5802 45.9167H3.82495C1.99479 45.9167 0.5625 44.4446 0.5625 42.6542V26.899C0.5625 25.0689 2.03458 23.6366 3.82495 23.6366H19.5802C21.4103 23.6366 22.8426 25.1087 22.8426 26.899V42.6542C22.8824 44.4446 21.4103 45.9167 19.5802 45.9167Z" fill="#E7236A"/>
<path d="M43.3321 45.9167H27.5769C25.7467 45.9167 24.3145 44.4446 24.3145 42.6542V26.899C24.3145 25.0689 25.7865 23.6366 27.5769 23.6366H43.3321C45.1623 23.6366 46.5946 25.1087 46.5946 26.899V42.6542C46.5946 44.4446 45.1623 45.9167 43.3321 45.9167Z" fill="#E7236A"/>
<path d="M67.0846 45.9167H51.3293C49.4992 45.9167 48.0669 44.4446 48.0669 42.6542V26.899C48.0669 25.0689 49.539 23.6366 51.3293 23.6366H67.0846C68.9147 23.6366 70.347 25.1087 70.347 26.899V42.6542C70.347 44.4446 68.8749 45.9167 67.0846 45.9167Z" fill="#E7236A"/>
<path d="M90.797 45.9167H75.0417C73.2116 45.9167 71.7793 44.4446 71.7793 42.6542V26.899C71.7793 25.0689 73.2514 23.6366 75.0417 23.6366H90.797C92.6271 23.6366 94.0594 25.1087 94.0594 26.899V42.6542C94.0992 44.4446 92.6271 45.9167 90.797 45.9167Z" fill="#E7236A"/>
<path d="M114.509 45.9167H98.7537C96.9235 45.9167 95.4912 44.4446 95.4912 42.6542V26.899C95.4912 25.0689 96.9633 23.6366 98.7537 23.6366H114.509C116.339 23.6366 117.771 25.1087 117.771 26.899V42.6542C117.771 44.4446 116.299 45.9167 114.509 45.9167Z" fill="#E7236A"/>
<path d="M19.5802 22.4033H3.82495C1.99479 22.4033 0.5625 20.9312 0.5625 19.1408V3.34582C0.5625 1.51567 2.03458 0.083374 3.82495 0.083374H19.5802C21.4103 0.083374 22.8426 1.55545 22.8426 3.34582V19.101C22.8824 20.9312 21.4103 22.4033 19.5802 22.4033Z" fill="#E7236A"/>
<path d="M43.3326 22.4033H27.5774C25.7472 22.4033 24.3149 20.9312 24.3149 19.1408V3.34582C24.3149 1.51567 25.787 0.083374 27.5774 0.083374H43.3326C45.1628 0.083374 46.5951 1.55545 46.5951 3.34582V19.101C46.5951 20.9312 45.1628 22.4033 43.3326 22.4033Z" fill="#E7236A"/>
<path d="M67.0851 22.4033H51.3298C49.4997 22.4033 48.0674 20.9312 48.0674 19.1408V3.34582C48.0674 1.51567 49.5395 0.083374 51.3298 0.083374H67.0851C68.9152 0.083374 70.3475 1.55545 70.3475 3.34582V19.101C70.3475 20.9312 68.8754 22.4033 67.0851 22.4033Z" fill="#E7236A"/>
<path d="M90.797 22.4033H75.0417C73.2116 22.4033 71.7793 20.9312 71.7793 19.1408V3.34582C71.7793 1.51567 73.2514 0.083374 75.0417 0.083374H90.797C92.6271 0.083374 94.0594 1.55545 94.0594 3.34582V19.101C94.0992 20.9312 92.6271 22.4033 90.797 22.4033Z" fill="#E7236A"/>
<path d="M42.1391 25.8247C40.9057 25.8247 39.911 26.8194 39.911 28.0527V32.5087H30.999V28.0527C30.999 26.8194 30.0043 25.8247 28.771 25.8247C27.5376 25.8247 26.543 26.8194 26.543 28.0527V32.5087V36.9648V41.4208C26.543 42.6541 27.5376 43.6488 28.771 43.6488C30.0043 43.6488 30.999 42.6541 30.999 41.4208V36.9648H39.911V41.4208C39.911 42.6541 40.9057 43.6488 42.1391 43.6488C43.3724 43.6488 44.3671 42.6541 44.3671 41.4208V36.9648V32.5087V28.0527C44.3671 26.8591 43.3724 25.8247 42.1391 25.8247Z" fill="white"/>
<path d="M65.9708 25.8247H63.6632H54.7512H52.4038C51.2102 25.8247 50.2554 26.7796 50.2554 27.9731V30.2807V39.2325V41.5401C50.2554 42.7337 51.2102 43.6886 52.4038 43.6886H54.7114H63.6234H65.931C67.1246 43.6886 68.0795 42.7337 68.0795 41.5401V39.2325V30.3205V28.0129C68.1193 26.8194 67.1644 25.8247 65.9708 25.8247ZM63.6632 39.2325H54.7512V30.3205H63.6632V39.2325Z" fill="white"/>
<path d="M89.6835 25.8247H87.3759H78.4638H76.1563C74.9627 25.8247 74.0078 26.7796 74.0078 27.9731V30.2807V39.2325V41.5401C74.0078 42.7337 74.9627 43.6886 76.1563 43.6886H78.4638H87.3759H89.6835C90.8771 43.6886 91.8319 42.7337 91.8319 41.5401V39.2325V30.3205V28.0129C91.8319 26.8194 90.8771 25.8247 89.6835 25.8247ZM87.3759 39.2325H78.4638V30.3205H87.3759V39.2325Z" fill="white"/>
<path d="M111.088 25.8247L106.632 31.2754L102.176 25.8645H99.9477H97.7197V28.0925V40.1874V41.5003C97.7197 42.7337 98.7144 43.7284 99.9477 43.7284C101.181 43.7284 102.176 42.7337 102.176 41.5003V40.5455V38.2379V32.8668L103.688 34.697L104.921 36.2088C105.796 37.283 107.467 37.283 108.343 36.2088L111.088 32.8668V38.1583V40.0681V41.4606C111.088 42.6939 112.082 43.6886 113.316 43.6886C114.549 43.6886 115.544 42.6939 115.544 41.4606V40.4261V28.0527V25.8247H111.088Z" fill="white"/>
<path d="M12.1009 2.31128H4.85988H2.79102V4.38015V18.1063V20.1751H4.85988H13.4934H16.1989L20.6549 15.7191V14.0481V8.51788V6.7673L16.1989 2.31128H12.1009ZM16.1989 13.8492L14.3687 15.6793H7.24704V6.7673H14.3289L16.1591 8.59745V13.8492H16.1989Z" fill="white"/>
<path d="M12.1009 25.8247H4.85988H2.79102V27.8936V41.6197V43.6886H4.85988H13.4934H16.1989L20.6549 39.2325V37.5615V32.0711V30.3205L16.1989 25.8247H12.1009ZM16.1989 37.3626L14.3687 39.1928H7.24704V30.2807H14.3289L16.1591 32.1109V37.3626H16.1989Z" fill="white"/>
<path d="M42.338 2.31128H41.9401C40.8261 2.31128 39.911 3.22636 39.911 4.34036V8.99531H30.999V4.34036C30.999 3.22636 30.0839 2.31128 28.9699 2.31128H28.5721C27.458 2.31128 26.543 3.22636 26.543 4.34036V8.99531V13.4513V18.1063C26.543 19.2203 27.458 20.1354 28.5721 20.1354H28.9699C30.0839 20.1354 30.999 19.2203 30.999 18.1063V13.4513H39.911V18.1461C39.911 19.2601 40.8261 20.1751 41.9401 20.1751H42.3778C43.4918 20.1751 44.4069 19.2601 44.4069 18.1461V13.4513V8.99531V4.34036C44.3671 3.22636 43.452 2.31128 42.338 2.31128Z" fill="white"/>
<path d="M66.0109 2.31128H63.6635H54.7514H52.4041C51.2503 2.31128 50.2954 3.26614 50.2954 4.41993V6.7673V8.99531V13.4513V18.0267C50.2954 19.1805 51.2503 20.1354 52.4041 20.1354H52.6826C53.8364 20.1354 54.7912 19.1805 54.7912 18.0267V13.4513H63.7033V18.0267C63.7033 19.1805 64.6581 20.1354 65.8119 20.1354H66.0904C67.2442 20.1354 68.1991 19.1805 68.1991 18.0267V13.4513V8.99531V6.7673V4.41993C68.1195 3.26614 67.1646 2.31128 66.0109 2.31128ZM63.6635 8.99531H54.7514V6.7673H63.6635V8.99531Z" fill="white"/>
<path d="M89.6835 2.31128H89.5641C88.3705 2.31128 87.3759 3.30592 87.3759 4.4995V13.133L78.4638 2.31128H74.0078V17.9869C74.0078 19.1805 75.0025 20.1751 76.196 20.1751H76.3154C77.509 20.1751 78.5036 19.1805 78.5036 17.9869V9.3136L87.4157 20.1354H91.8717V4.4995C91.8319 3.26614 90.8771 2.31128 89.6835 2.31128Z" fill="white"/>
</svg>
