<svg width="14" height="12" viewBox="0 0 14 12" fill="none" xmlns="http://www.w3.org/2000/svg">
<path fill-rule="evenodd" clip-rule="evenodd" d="M5.66634 0.666626H4.33301V1.99996H2.33301C1.80257 1.99996 1.29387 2.21067 0.918794 2.58575C0.543722 2.96082 0.333008 3.46953 0.333008 3.99996V7.99996C0.333008 8.53039 0.543722 9.0391 0.918794 9.41417C1.29387 9.78925 1.80257 9.99996 2.33301 9.99996H4.33301V11.3333H5.66634V0.666626ZM4.33301 3.33329V8.66663H2.33301C2.1562 8.66663 1.98663 8.59639 1.8616 8.47136C1.73658 8.34634 1.66634 8.17677 1.66634 7.99996V3.99996C1.66634 3.82315 1.73658 3.65358 1.8616 3.52855C1.98663 3.40353 2.1562 3.33329 2.33301 3.33329H4.33301Z" fill="white"/>
<path d="M11.6667 8.66667H7V10H11.6667C12.1971 10 12.7058 9.78929 13.0809 9.41421C13.456 9.03914 13.6667 8.53043 13.6667 8V4C13.6667 3.46957 13.456 2.96086 13.0809 2.58579C12.7058 2.21071 12.1971 2 11.6667 2H7V3.33333H11.6667C11.8435 3.33333 12.013 3.40357 12.1381 3.5286C12.2631 3.65362 12.3333 3.82319 12.3333 4V8C12.3333 8.17681 12.2631 8.34638 12.1381 8.4714C12.013 8.59643 11.8435 8.66667 11.6667 8.66667Z" fill="white"/>
</svg>
