<svg width="22" height="19" viewBox="0 0 22 19" fill="none" xmlns="http://www.w3.org/2000/svg">
<path opacity="0.5" d="M1 9.5C1 5.729 1 3.843 2.172 2.672C3.344 1.501 5.229 1.5 9 1.5H13C16.771 1.5 18.657 1.5 19.828 2.672C20.999 3.844 21 5.729 21 9.5C21 13.271 21 15.157 19.828 16.328C18.656 17.499 16.771 17.5 13 17.5H9C5.229 17.5 3.343 17.5 2.172 16.328C1.001 15.156 1 13.271 1 9.5Z" stroke="white" stroke-width="1.5"/>
<path d="M11 7.5V11.5M9.268 8.5L12.732 10.5M12.732 8.5L9.267 10.5M5.732 7.5V11.5M4 8.5L7.464 10.5M7.464 8.5L4 10.5M16.268 7.5V11.5M14.536 8.5L18 10.5M18 8.5L14.535 10.5" stroke="white" stroke-width="1.5" stroke-linecap="round"/>
</svg>
