<svg width="23" height="18" viewBox="0 0 23 18" fill="none" xmlns="http://www.w3.org/2000/svg">
<path d="M5.5 5H9.5" stroke="#A4A4A4" stroke-width="1.5" stroke-linecap="round" stroke-linejoin="round"/>
<path d="M20.333 6H17.731C15.946 6 14.5 7.343 14.5 9C14.5 10.657 15.947 12 17.73 12H20.333C20.417 12 20.458 12 20.493 11.998C21.033 11.965 21.463 11.566 21.498 11.065C21.5 11.033 21.5 10.994 21.5 10.917V7.083C21.5 7.006 21.5 6.967 21.498 6.935C21.462 6.434 21.033 6.035 20.493 6.002C20.459 6 20.417 6 20.333 6Z" stroke="#A4A4A4" stroke-width="1.5"/>
<path d="M20.465 6C20.387 4.128 20.137 2.98 19.328 2.172C18.157 1 16.271 1 12.5 1H9.5C5.729 1 3.843 1 2.672 2.172C1.501 3.344 1.5 5.229 1.5 9C1.5 12.771 1.5 14.657 2.672 15.828C3.844 16.999 5.729 17 9.5 17H12.5C16.271 17 18.157 17 19.328 15.828C20.137 15.02 20.388 13.872 20.465 12" stroke="#A4A4A4" stroke-width="1.5"/>
<path d="M17.4912 9H17.5012" stroke="#A4A4A4" stroke-width="2" stroke-linecap="round" stroke-linejoin="round"/>
</svg>
